<svg xmlns="http://www.w3.org/2000/svg" width="78.945" height="45.513" viewBox="0 0 78.945 45.513"><defs><style>.a{fill:#fff;}.b{fill:none;stroke:#fffcfa;stroke-miterlimit:10;stroke-width:0.849px;}</style></defs><g transform="translate(-2943.955 2117)"><path class="a" d="M3029.209-2012.927h1.462a2.3,2.3,0,0,1,2.557,2.364,2.3,2.3,0,0,1-2.557,2.364h-1.462Zm.441,4.327h.908c1.255,0,2.23-.608,2.23-1.963s-.975-1.963-2.23-1.963h-.908Z" transform="translate(-51.942 -63.408)"/><path class="a" d="M3042.028-2012.927h2.891v.4h-2.451v1.683h2.3v.4h-2.3v1.843h2.557v.4h-3Z" transform="translate(-59.753 -63.408)"/><path class="a" d="M3052.163-2012.927h.441v4.327h2.2v.4h-2.645Z" transform="translate(-65.928 -63.408)"/><path class="a" d="M3065.153-2012.927h2.892v.4h-2.451v1.683h2.3v.4h-2.3v1.843h2.558v.4h-3Z" transform="translate(-73.842 -63.408)"/><path class="a" d="M3074.957-2009.262a1.194,1.194,0,0,0,1.082.595.962.962,0,0,0,1.062-.928c0-1.322-2.437-.548-2.437-2.344a1.363,1.363,0,0,1,1.516-1.3,1.538,1.538,0,0,1,1.289.594l-.381.274a1.06,1.06,0,0,0-.922-.467c-.567,0-1.062.294-1.062.895,0,1.422,2.438.568,2.438,2.344a1.354,1.354,0,0,1-1.469,1.329,1.777,1.777,0,0,1-1.536-.715Z" transform="translate(-79.559 -63.22)"/><path class="a" d="M3084.791-2012.927h1.362c.668,0,1.523.261,1.523,1.249a1.258,1.258,0,0,1-1.423,1.236h-1.022v2.243h-.441Zm.441,2.083h1c.5,0,1-.213,1-.835s-.521-.848-1.029-.848h-.975Z" transform="translate(-85.807 -63.408)"/><path class="a" d="M3094.6-2012.927h.441v4.728h-.441Z" transform="translate(-91.784 -63.408)"/><path class="a" d="M3099.046-2012.927h.568l2.878,4.14h.014v-4.14h.441v4.728h-.568l-2.878-4.14h-.013v4.14h-.441Z" transform="translate(-94.492 -63.408)"/><path class="a" d="M3114-2013.235a2.367,2.367,0,0,1,2.445,2.484,2.367,2.367,0,0,1-2.445,2.484,2.367,2.367,0,0,1-2.444-2.484A2.367,2.367,0,0,1,3114-2013.235Zm0,4.568a1.953,1.953,0,0,0,2-2.083,1.953,1.953,0,0,0-2-2.083,1.953,1.953,0,0,0-2,2.083A1.953,1.953,0,0,0,3114-2008.667Z" transform="translate(-102.114 -63.22)"/><path class="a" d="M3020.212-2045.829c-.826.28-1.563.788-1.779.826a.137.137,0,0,1-.14-.127c0-.178.635-.712.877-.9-3.012-.025-4.753,1.208-4.677,1.652.038.2-.038.572,4.042.483.127,0,.851-.013.851.279a1.551,1.551,0,0,1-.47.826,3.778,3.778,0,0,1-1.207.331c-3.253.534-4.6,1.969-4.6,2.427,0,.229.382.381,1.068.406a8.81,8.81,0,0,0,3-.445,13.643,13.643,0,0,0,2.554-1.347,1.981,1.981,0,0,1-.737,2.033,7.252,7.252,0,0,1-4.689,1.449,7.218,7.218,0,0,1-1.741-.28,1.581,1.581,0,0,1-.889-1.436c0-.852,1.131-2.478,4.867-3.406v-.038c-2.885-.089-3.482-.75-3.482-1.461,0-1.246,1.843-3.19,6.036-3.19.407,0,1.6-.038,1.792.381l.025.534C3020.95-2046.108,3020.924-2046.057,3020.212-2045.829Z" transform="translate(-41.258 -42.192)"/><path class="a" d="M3037.744-2039.536c-.7.724-1.894,2.008-2.987,2.008-.927,0-1.131-.9-1.131-1.652a6.3,6.3,0,0,1,1.4-3.787c1.118-1.385,2.325-2.567,2.732-2.567.216,0,.267.3.254.47-.089,1.208-.419,2.326-3.177,4.995a1.425,1.425,0,0,0-.089.877c.115.292.292.547.636.547a4.43,4.43,0,0,0,2.186-1.271Zm-2.63-1.7a7.793,7.793,0,0,0,1.919-2.783,6.249,6.249,0,0,0-1.944,2.758Z" transform="translate(-54.633 -43.541)"/><path class="a" d="M3054.214-2039.482a3.425,3.425,0,0,1-1,.305c-.178,0-.394-.038-.394-.267,0-.292.6-1,.788-1.258.115-.152.2-.3.395-.355.533-.127,1.1-.14,1.639-.241l3.7-4.4c.457-.546,2.325-2.44,3-2.44.432,0,.635.457.635.826,0,.813-1.042,2.3-1.448,3.025.1.012.229.038.229.178,0,.229-.534.61-.712.737-.216.153-.864.661-1.105.661s-.292-.19-.292-.381c0-.953,1.093-2.339,1.7-3.025.1-.115.115-.241.026-.241-.165,0-.712.508-2.123,2.122l-2.542,2.91c2.11.407,3.2.623,5.109,1.08l-.673.673c-.813.814-.763.839-3.254.318a13.866,13.866,0,0,0-3.393-.356Z" transform="translate(-66.325 -41.956)"/><path class="a" d="M3078.861-2033.665c-.242.191-1.054.852-1.347.852-.356,0-1.093-.839-1.118-1.5-.051-1.588,3.253-3.215,4.728-3.253a.781.781,0,0,1,.826.61c0,.153-.331.28-.445.318a.509.509,0,0,1,.368.521c0,.407-1.106,1.3-1.106,1.894,0,.216.191.305.394.305.534,0,1.258-.648,1.8-1.017l.1.47c-.546.623-2.25,1.983-2.872,1.983a.6.6,0,0,1-.61-.674,4.27,4.27,0,0,1,.47-1.423l-.025-.026Zm-1.538-.33c.012.063.063.292.254.254.254-.051.648-.012,3.165-2.554l-.025-.025C3077.692-2035.393,3077.324-2034.618,3077.324-2034Z" transform="translate(-80.692 -48.396)"/><path class="a" d="M3096.537-2036.28c.267-.241,1.512-1.449,1.83-1.449.1,0,.241.038.292.7.025.305-.318.6-.521.775-.407.369-1.309,1.373-1.309,1.945,0,.2.114.279.317.279.483,0,1.576-.889,1.957-1.194l.077.547c-.648.623-2,2.084-2.936,2.084a.774.774,0,0,1-.75-.839,3.006,3.006,0,0,1,.267-1.067l-.025-.026c-.5.432-1.347,1.576-2.046,1.576-.623,0-.966-.712-.966-1.258a4.093,4.093,0,0,1,1.766-3.037.942.942,0,0,1,.559-.14c.178,0,.826-.115.775.267a1.663,1.663,0,0,1-.508.673,4.394,4.394,0,0,1-.966.915,1.285,1.285,0,0,0-.7,1.093c0,.064.013.191.1.191a3.67,3.67,0,0,0,1.525-.9Z" transform="translate(-90.64 -48.297)"/><path class="a" d="M3108.611-2035.756a8.965,8.965,0,0,1-1.525,1.576l-.051-.559a4.472,4.472,0,0,0,.839-.927c-.267-.025-.344-.127-.344-.394,0-.915,1.3-1.83,1.6-1.83a.225.225,0,0,1,.229.216.86.86,0,0,1-.089.356c1.195-.165,1.894-.318,2.021-.165a1.274,1.274,0,0,1,.3.673c0,.394-.241.585-.534.826-.368.318-.991.94-.991,1.448a.389.389,0,0,0,.394.356c.546,0,1.347-.826,1.766-1.144l.089.47c-.483.547-1.944,1.957-2.669,1.957a.924.924,0,0,1-.864-.979,3.613,3.613,0,0,1,1.17-2.148l-.026-.025Z" transform="translate(-99.359 -48.198)"/><path class="a" d="M3124.665-2034.773c-.775.9-2.173,2.1-3.431,2.1-.927,0-1.36-.826-1.385-1.665a3.672,3.672,0,0,1,3.444-3.355c.406,0,.915.1.915.61,0,.623-.623,1.563-3.063,2.364l-.025.279c-.038.483.381.648.788.648.9,0,1.969-.927,2.643-1.461Zm-1.576-2.046c0-.089-.064-.165-.153-.14a2.793,2.793,0,0,0-1.716,1.614A3.115,3.115,0,0,0,3123.089-2036.819Z" transform="translate(-107.165 -48.317)"/><path class="a" d="M3135.644-2039.536c-.7.724-1.894,2.008-2.987,2.008-.927,0-1.131-.9-1.131-1.652a6.3,6.3,0,0,1,1.4-3.787c1.118-1.385,2.325-2.567,2.732-2.567.216,0,.267.3.254.47-.089,1.208-.419,2.326-3.177,4.995a1.423,1.423,0,0,0-.089.877c.114.292.292.547.635.547a4.43,4.43,0,0,0,2.186-1.271Zm-2.631-1.7a7.792,7.792,0,0,0,1.919-2.783,6.241,6.241,0,0,0-1.944,2.758Z" transform="translate(-114.281 -43.541)"/><line class="b" x2="78.296" transform="translate(2944.604 -2078.187)"/><path class="a" d="M2968.435-2061.024l9.475-.055c-2.74-4.8-5.075-12.146-3.181-17.242.571-1.537,1.35-2.859,3.9-4.865-2.588,1.083-4.977,3.681-5.385,5.76a18.1,18.1,0,0,0-7.05-11.4,16.909,16.909,0,0,1,4.564,7.614c1.909,5.99,2.11,12.315-.74,18.163a5.435,5.435,0,0,1-1.583,2.028" transform="translate(-13.549 -17.163)"/><path class="a" d="M2974.757-2109.736c-.024.012-.107-.018-.107-.018l-3.308-7.171s.056-.067.077-.073a.386.386,0,0,1,.115.018l3.286,7.171a.252.252,0,0,1-.062.073" transform="translate(-16.685 0)"/><path class="a" d="M2985.182-2088.18c-.021-.016-.031-.1-.031-.1l4.989-6.122a.384.384,0,0,1,.1.036.387.387,0,0,1,.034.111l-5,6.1a.248.248,0,0,1-.093-.024" transform="translate(-25.099 -13.765)"/><path class="a" d="M2999.773-2060.433c-.023.018-.119.006-.119.006l-5.25-6.869a.421.421,0,0,1,.064-.1.446.446,0,0,1,.127-.008l5.227,6.875a.279.279,0,0,1-.049.093" transform="translate(-30.737 -30.219)"/><path class="a" d="M2961.328-2065.045c.021.02.025.116.025.116l-5.948,6.275a.4.4,0,0,1-.106-.048.434.434,0,0,1-.028-.124l5.957-6.253a.276.276,0,0,1,.1.034" transform="translate(-6.894 -31.633)"/><path class="a" d="M2995.654-2110.475c-.013-.005-.03-.049-.03-.049l1.722-3.755a.2.2,0,0,1,.055.006.2.2,0,0,1,.032.052l-1.729,3.747a.128.128,0,0,1-.05,0" transform="translate(-31.48 -1.658)"/><path class="a" d="M2952.581-2104.47c-.008.01-.051.016-.051.016l-3.039-2.411a.2.2,0,0,1,.017-.049.2.2,0,0,1,.055-.017l3.03,2.416a.122.122,0,0,1-.011.046" transform="translate(-3.373 -6.134)"/><path class="a" d="M2947.982-2071.772c.007.011,0,.054,0,.054l-3.363,1.934a.194.194,0,0,1-.039-.034.191.191,0,0,1,0-.057l3.364-1.924a.118.118,0,0,1,.039.027" transform="translate(-0.377 -27.539)"/><path class="a" d="M3017.52-2065.506c-.008.007-.044.005-.044.005l-2.135-2.432a.145.145,0,0,1,.021-.038.153.153,0,0,1,.047-.006l2.126,2.434a.108.108,0,0,1-.016.036" transform="translate(-43.493 -29.869)"/><path class="a" d="M2971.448-2092.924c.01,0,.042.016.042.016l.73,3.152a.164.164,0,0,1-.037.023.173.173,0,0,1-.045-.017l-.722-3.15a.107.107,0,0,1,.031-.024" transform="translate(-16.732 -14.669)"/><path class="a" d="M3001.868-2078.982s.027,0,.027,0l1.255,1.512a.115.115,0,0,1-.014.023.114.114,0,0,1-.029,0l-1.249-1.514a.063.063,0,0,1,.01-.022" transform="translate(-35.278 -23.161)"/><g transform="translate(2943.955 -2116.98)"><path class="a" d="M2969.054-2111.791a5,5,0,0,0,3.918,2.154l-3.308-7.171s-1.941,2.888-.61,5.017" transform="translate(-2958.963 2116.864)"/><path class="a" d="M2975.118-2109.777l-3.286-7.171s2.948.322,3.959,2.272c1.054,2.034-.673,4.9-.673,4.9" transform="translate(-2960.94 2116.949)"/><path class="a" d="M2984.684-2092.822a5.005,5.005,0,0,0-.214,4.466l4.989-6.123s-3.447-.474-4.775,1.657" transform="translate(-2968.373 2103.286)"/><path class="a" d="M2985.47-2087.926l5-6.1s1.006,2.79-.3,4.555c-1.364,1.84-4.7,1.548-4.7,1.548" transform="translate(-2969.249 2102.985)"/><path class="a" d="M3012.026-2088.609a4.6,4.6,0,0,0-.2,4.106l4.587-5.63s-3.169-.436-4.391,1.523" transform="translate(-2985.064 2100.636)"/><path class="a" d="M3012.749-2084.109l4.6-5.612s.924,2.566-.278,4.188c-1.254,1.693-4.318,1.424-4.318,1.424" transform="translate(-2985.869 2100.36)"/><path class="a" d="M3012.485-2084.343c-.02-.015-.029-.1-.029-.1l4.587-5.63a.357.357,0,0,1,.092.034.367.367,0,0,1,.031.1l-4.6,5.612a.236.236,0,0,1-.086-.022" transform="translate(-2985.691 2100.572)"/><path class="a" d="M2994.207-2061.625a5.48,5.48,0,0,0,4.7,1.364l-5.25-6.869s-1.382,3.55.549,5.505" transform="translate(-2973.946 2086.596)"/><path class="a" d="M3000.12-2060.569l-5.227-6.874s3.227-.361,4.773,1.48c1.613,1.92.454,5.394.454,5.394" transform="translate(-2974.99 2086.804)"/><path class="a" d="M2945.853-2087.254a5.479,5.479,0,0,0,4.891.2l-6.746-5.408s-.489,3.778,1.855,5.213" transform="translate(-2943.956 2102.033)"/><path class="a" d="M2951.2-2088.087l-6.725-5.418s3.045-1.125,4.989.291c2.027,1.477,1.736,5.127,1.736,5.127" transform="translate(-2944.271 2102.924)"/><path class="a" d="M2950.923-2087.324c-.018.023-.114.035-.114.035l-6.746-5.408a.431.431,0,0,1,.039-.109.439.439,0,0,1,.122-.038l6.725,5.418a.278.278,0,0,1-.025.1" transform="translate(-2944.021 2102.263)"/><path class="a" d="M2960.962-2059.836a5.478,5.478,0,0,0,.6-4.858l-5.948,6.274s3.724.8,5.348-1.417" transform="translate(-2951.059 2085.112)"/><path class="a" d="M2960.855-2065.216l-5.957,6.252s-.868-3.129.7-4.948c1.64-1.9,5.253-1.3,5.253-1.3" transform="translate(-2950.476 2085.483)"/><path class="a" d="M2994.242-2112.813a2.618,2.618,0,0,0,.478,2.289l1.722-3.755s-1.807.213-2.2,1.466" transform="translate(-2974.531 2115.322)"/><path class="a" d="M2995.829-2110.385l1.729-3.747a2.916,2.916,0,0,1,.445,2.346c-.449,1.111-2.174,1.4-2.174,1.4" transform="translate(-2975.56 2115.233)"/><path class="a" d="M2950.309-2104.427a2.457,2.457,0,0,0,2.194.076l-3.039-2.412s-.21,1.7.845,2.335" transform="translate(-2947.302 2110.742)"/><path class="a" d="M2952.7-2104.822l-3.03-2.416a2.735,2.735,0,0,1,2.239.119c.912.658.791,2.3.791,2.3" transform="translate(-2947.44 2111.151)"/><path class="a" d="M2947.161-2069.582a2.458,2.458,0,0,0,.881-2.011l-3.363,1.935s1.5.821,2.481.077" transform="translate(-2944.396 2089.315)"/><path class="a" d="M2947.952-2072.353l-3.363,1.924a2.735,2.735,0,0,1,.937-2.036,2.93,2.93,0,0,1,2.426.113" transform="translate(-2944.341 2089.995)"/><path class="a" d="M3015.5-2065.822a2.05,2.05,0,0,0,1.79.389l-2.135-2.432s-.426,1.361.345,2.042" transform="translate(-2987.265 2087.043)"/><path class="a" d="M3017.643-2065.6l-2.126-2.434a2.281,2.281,0,0,1,1.82.431c.651.676.307,2,.307,2" transform="translate(-2987.555 2087.167)"/><path class="a" d="M3009.639-2101.586a2.05,2.05,0,0,0,.012-1.832l-1.94,2.59s1.419.135,1.927-.759" transform="translate(-2982.8 2108.705)"/><path class="a" d="M3009.212-2103.549l-1.944,2.583a2.283,2.283,0,0,1,.047-1.869c.527-.776,1.9-.713,1.9-.713" transform="translate(-2982.414 2108.786)"/><path class="a" d="M3009.547-2103.539c.009.006.015.042.015.042l-1.939,2.59a.16.16,0,0,1-.042-.013.164.164,0,0,1-.016-.045l1.944-2.583a.1.1,0,0,1,.038.008" transform="translate(-2982.711 2108.784)"/><path class="a" d="M2973-2091.692a2.049,2.049,0,0,0-1.392-1.19l.73,3.152s1.019-1,.662-1.962" transform="translate(-2960.801 2102.286)"/><path class="a" d="M2970.293-2092.861l.721,3.151s-1.156-.374-1.4-1.241c-.254-.9.677-1.909.677-1.909" transform="translate(-2959.563 2102.273)"/><path class="a" d="M3003.032-2078.763a1.245,1.245,0,0,0-1.08-.267l1.255,1.513s.281-.819-.175-1.246" transform="translate(-2979.291 2093.864)"/><path class="a" d="M3001.749-2078.922l1.249,1.514a1.387,1.387,0,0,1-1.1-.293c-.383-.422-.152-1.221-.152-1.221" transform="translate(-2979.125 2093.781)"/><path class="a" d="M2970.68-2071.212a1.244,1.244,0,0,0,.157-1.1l-1.378,1.4s.843.2,1.221-.3" transform="translate(-2959.494 2089.754)"/><path class="a" d="M2970.69-2072.442l-1.38,1.4a1.387,1.387,0,0,1,.181-1.122c.381-.424,1.2-.275,1.2-.275" transform="translate(-2959.375 2089.848)"/></g><path class="a" d="M2970.785-2072.394s.005.026.005.026l-1.378,1.4a.09.09,0,0,1-.024-.011.1.1,0,0,1-.006-.028l1.38-1.4a.06.06,0,0,1,.023.008" transform="translate(-15.492 -27.172)"/></g></svg>