<svg xmlns="http://www.w3.org/2000/svg" xmlns:xlink="http://www.w3.org/1999/xlink" width="114.421" height="38.106" viewBox="0 0 114.421 38.106"><defs><style>.a{fill:none;}.b{clip-path:url(#a);}.c,.g{fill:#93a603;}.d{fill:#c1ff2a;}.e{clip-path:url(#b);}.f{fill:#4f7302;}.g,.h,.i{fill-rule:evenodd;}.h{fill:#214001;}.i{fill:#d2d91a;}.j{clip-path:url(#c);}.k{clip-path:url(#d);}.l{clip-path:url(#e);}.m{clip-path:url(#f);}.n{clip-path:url(#g);}.o{clip-path:url(#h);}.p{clip-path:url(#i);}</style><clipPath id="a"><rect class="a" width="114.421" height="38.106"/></clipPath><clipPath id="b"><path class="a" d="M172.743,120.811c-.819-.676-1.863-1.106-4.668-1.106h-4.954v15.149h3.705V130.1H168.5c2.354,0,3.378-.43,4.422-1.31a5.469,5.469,0,0,0,1.6-3.971A5.151,5.151,0,0,0,172.743,120.811Zm-4.34,5.9h-1.576v-3.6h1.433c.839,0,2.559,0,2.559,1.781C170.818,126.706,169.14,126.706,168.4,126.706Z" transform="translate(-163.121 -119.705)"/></clipPath><clipPath id="c"><path class="a" d="M221.107,119.706,218,128.452h0l-2.273,6.4h4.4l.8-2.246h4.764l.8,2.246h4.4l-5.379-15.149Zm1.293,8.746.906-2.552.906,2.552Z" transform="translate(-215.728 -119.706)"/></clipPath><clipPath id="d"><path class="a" d="M298.954,119.706h-3.869v15.149h8.352v-3.4h-4.483Z" transform="translate(-295.085 -119.706)"/></clipPath><clipPath id="e"><path class="a" d="M358.8,128.134l-3.009-8.429h-4.975v15.149h3.522v-9.225l3.193,9.225h2.559l3.193-9.225v9.225H366.8V119.7h-5Z" transform="translate(-350.816 -119.705)"/></clipPath><clipPath id="f"><rect class="a" width="3.869" height="15.149"/></clipPath><clipPath id="g"><path class="a" d="M471.637,120.541h2.989v11.751H478.5V120.541h2.968v-3.4h-9.826Z" transform="translate(-471.637 -117.142)"/></clipPath><clipPath id="h"><path class="a" d="M544.518,116.922c-.08,1.932-1.368,4.314-3.375,4.912-.532.159-.245-.271-.245-.271,2.165-1.677,3.824-4.361,1.92-6.8a9.886,9.886,0,0,0-2.52-1.743,4.956,4.956,0,0,1,.777,3.641c-.153,1.378-.78,2.822-1.319,2.937s.433-1.4.623-2.039-.107-4.645-.806-5.237a14.81,14.81,0,0,0-2.906-1.415s.247.344.452.6a6.618,6.618,0,0,1,.919,3.043c.136,1.641-.188,3.266-.7,3.313s-.2-1.074-.169-2.415a18.061,18.061,0,0,0-.416-3.229c-.2-1-.325-1.234-1.5-1.517a1.633,1.633,0,0,0-1.394.256c.517-.288,1.182.811,1.314,1.155.315.819.455,2.88-.115,3.09s-.246-.619-.319-1.758c-.063-.959-.542-2.531-1.751-2.412-.22.021-.514.058-.935.092-.971.078-2.49.092-2.611.092h-.007c.919,1.617-.1,2.049-.6,3.445-.381,1.084-.226,1.595.991,2.26.983.537,3.523,1.1,3.754,1.627s-.115,1.05-1.368.585a12.629,12.629,0,0,1-3.368-1.78.911.911,0,0,1-.35-1.041,4.4,4.4,0,0,0-.477,2.207c.016,1.406.04,1.438.529,1.981a9.659,9.659,0,0,0,4.2,1.455c1.423.146,2.323-.054,2.312.277s-2,.4-3.126.283a7.335,7.335,0,0,1-3.143-1.122,1.861,1.861,0,0,1-.743-.873,12.5,12.5,0,0,0,1.172,3.026,2.4,2.4,0,0,0,1.364,1.033,17.689,17.689,0,0,0,3.452.262c.241-.008.476-.021.7-.047h0a4.534,4.534,0,0,0,.6-.1c.247-.06.815.059.793.325-.016.191-.986.324-1.547.442a6.365,6.365,0,0,1-4.052-.332c.078.609,2.267,2.693,3.821,3.4,2.026.919,3.579.343,4.187-.243.7-.68.543-3.671.543-3.671a.58.58,0,0,1,.526-.478c.453-.027,1.35.945,2.756,1.1s2.843-1.819,3.254-2.736-.073-2.557-.19-3.343A7.253,7.253,0,0,0,544.518,116.922Zm-11.536-.16c-.054.15-.931-.189-1.436-.46-.89-.476-.322-1.5.681-.652C532.671,116.029,533.034,116.616,532.982,116.763Z" transform="translate(-528.016 -110.645)"/></clipPath><clipPath id="i"><path class="a" d="M623.705,125.186c-2.723-1.228-3.132-1.412-3.132-2.313a1.261,1.261,0,0,1,1.331-1.187c1.187,0,1.31.962,1.392,1.474h3.828a4.571,4.571,0,0,0-1-2.989,5.4,5.4,0,0,0-4.094-1.72c-2.539,0-5.3,1.617-5.3,4.463s2.641,3.91,3.7,4.34c2.334.982,2.969,1.228,2.969,2.231a1.461,1.461,0,0,1-1.474,1.453c-.491,0-1.576-.307-1.576-2.067H616.5v.491c0,1.945,1.085,4.811,5.466,4.811,4.012,0,5.282-2.436,5.282-4.647C627.247,127.766,626.53,126.456,623.705,125.186Z" transform="translate(-616.499 -118.451)"/></clipPath></defs><g class="b"><g transform="translate(0.444)"><path class="c" d="M176.065,76.232q-.719-.009-1.488-.093t-1.539-.224q-.769-.14-1.516-.331t-1.4-.415l-.14.205a2.1,2.1,0,0,1-.774.662,1.688,1.688,0,0,1-.812.187.884.884,0,0,1-.606-.242.851.851,0,0,1-.238-.448.874.874,0,0,1,.06-.522,1.014,1.014,0,0,1,.42-.5,1.359,1.359,0,0,1,.746-.2,2.178,2.178,0,0,1,.448.056q.261.056.606.14a7.835,7.835,0,0,0,.471-1.31q.2-.742.387-1.525l.2-.8q-.551.028-1.1.028-.728.019-1.4.051a4.592,4.592,0,0,0-1.231.219,2.22,2.22,0,0,0-1.548,1.539.277.277,0,0,1-.354.177.29.29,0,0,1-.159-.14.26.26,0,0,1-.019-.214,2.762,2.762,0,0,1,1.9-1.893,5.117,5.117,0,0,1,1.333-.242q.709-.037,1.474-.056.308,0,.625-.01t.625-.028q.047-.177.1-.35t.107-.331a8.446,8.446,0,0,1,.378-.96,3.448,3.448,0,0,1,.424-.69,3.145,3.145,0,0,1,1.222-.924,2.842,2.842,0,0,1,.648-.177,1.765,1.765,0,0,1,.6.01,1.264,1.264,0,0,1,.536.238.833.833,0,0,1,.294.443,1.1,1.1,0,0,1,.042.35,1.482,1.482,0,0,1-.1.466,2.785,2.785,0,0,1-.317.588,5.042,5.042,0,0,1-.6.7,3.935,3.935,0,0,1-2.145,1.054,3.108,3.108,0,0,1-.373.07q-.187.023-.373.042-.065.243-.121.485l-.112.485q-.158.671-.336,1.334a11.452,11.452,0,0,1-.4,1.231c-.043.112-.084.208-.121.289q.709.205,1.413.387t1.413.322q.708.14,1.422.224a12.282,12.282,0,0,0,1.432.084,8.764,8.764,0,0,0,.946-.051q.471-.051.9-.135t.821-.182q.387-.1.695-.191.335-.1.615-.205t.48-.182q.2-.08.424-.182a.283.283,0,0,1,.215-.009.253.253,0,0,1,.158.14.287.287,0,0,1,.009.215.253.253,0,0,1-.14.158q-.019.01-.448.191t-1.138.406q-.327.1-.732.205t-.858.187q-.453.084-.951.14A8.945,8.945,0,0,1,176.065,76.232Zm-7.293-1.361a.625.625,0,0,0-.643.345.307.307,0,0,0,.047.364.394.394,0,0,0,.317.089,1.445,1.445,0,0,0,.485-.135,1.114,1.114,0,0,0,.308-.205,2.24,2.24,0,0,0,.27-.308q-.261-.074-.457-.112a1.763,1.763,0,0,0-.317-.037Zm5.419-7.461a2.033,2.033,0,0,0-.858.219,2.413,2.413,0,0,0-.849.695,3.165,3.165,0,0,0-.476.83,10.373,10.373,0,0,0-.373,1.1,5.9,5.9,0,0,0,1.278-.3,2.858,2.858,0,0,0,1.063-.681,4.337,4.337,0,0,0,.527-.615,2.507,2.507,0,0,0,.256-.462.824.824,0,0,0,.07-.312,1.307,1.307,0,0,0-.014-.168.35.35,0,0,0-.168-.205.764.764,0,0,0-.242-.084.277.277,0,0,0-.1-.019Z" transform="translate(-165.064 -66.847)"/><path class="c" d="M207.251,83.7a1.244,1.244,0,0,1-.583-.117.991.991,0,0,1-.322-.247,1.234,1.234,0,0,1-.271-.83,2.294,2.294,0,0,1,.1-.653,2.782,2.782,0,0,1,.289-.653,1.644,1.644,0,0,1,.4-.485.848.848,0,0,1,.354-.2.608.608,0,0,1,.065-.131.988.988,0,0,1,.858-.55.8.8,0,0,1,.727.494,2.175,2.175,0,0,1,.187.942,3.086,3.086,0,0,1-.2,1.11,1.628,1.628,0,0,0,.69-.331,3.9,3.9,0,0,0,.672-.653,4.208,4.208,0,0,0,.513-.793,1.723,1.723,0,0,0,.205-.751.267.267,0,0,1,.07-.182.3.3,0,0,1,.182-.1.274.274,0,0,1,.191.056.261.261,0,0,1,.107.168.533.533,0,0,0,.163.252q.135.131.294.271.14.13.294.27a2.1,2.1,0,0,1,.28.313,1.749,1.749,0,0,1,.21.382,1.254,1.254,0,0,1,.084.471,2.038,2.038,0,0,1-.177.919,2.114,2.114,0,0,1-.364.536,1.737,1.737,0,0,1-.513.34,1.478,1.478,0,0,1-.6.126,1.2,1.2,0,0,1-.355-.051,1.022,1.022,0,0,1-.3-.145.728.728,0,0,1-.317-.615.28.28,0,1,1,.56,0,.2.2,0,0,0,.149.2.82.82,0,0,0,.261.051.984.984,0,0,0,.718-.308,1.424,1.424,0,0,0,.373-1.054.819.819,0,0,0-.205-.56,4.691,4.691,0,0,0-.466-.457l-.261-.224q-.224.476-.471.9a3.649,3.649,0,0,1-.574.751,3,3,0,0,1-.751.546,2.845,2.845,0,0,1-.984.284,2.143,2.143,0,0,1-.466.457A1.521,1.521,0,0,1,207.251,83.7Zm-.233-2.332-.074.121a2.537,2.537,0,0,0-.224.513,1.712,1.712,0,0,0-.084.5,1.133,1.133,0,0,0,.028.233.609.609,0,0,0,.1.233.62.62,0,0,0,.485.168.941.941,0,0,0,.616-.224,1.261,1.261,0,0,1-.541-.429,1.527,1.527,0,0,1-.228-.476,2.013,2.013,0,0,1-.08-.569Zm.644-.448a1.73,1.73,0,0,0-.061.242,1.594,1.594,0,0,0-.023.28,1.184,1.184,0,0,0,.205.718.691.691,0,0,0,.457.28,2.208,2.208,0,0,0,.2-.555,2.9,2.9,0,0,0,.065-.611,1.735,1.735,0,0,0-.1-.625q-.1-.252-.256-.252a.354.354,0,0,0-.247.112.829.829,0,0,0-.191.3A.669.669,0,0,1,207.662,80.922Z" transform="translate(-196.698 -76.667)"/></g><g transform="translate(71.03 28.708)"><path class="c" d="M478.8,199.078a.256.256,0,0,1,.131.168.288.288,0,0,1-.028.214.383.383,0,0,1-.042.079q-.042.07-.116.186t-.177.261q-.1.145-.224.294a4,4,0,0,1-.578.588,1.289,1.289,0,0,1-.755.3.767.767,0,0,1-.453-.117,1.007,1.007,0,0,1-.247-.238,1.383,1.383,0,0,1-.121-.284,1.466,1.466,0,0,1-.056-.359,3.844,3.844,0,0,1-.266.308c-.091.093-.182.181-.275.261a1.833,1.833,0,0,1-.643.364,1.025,1.025,0,0,1-.327.056.784.784,0,0,1-.154-.014c-.047-.009-.095-.02-.145-.033a.807.807,0,0,1-.331-.233,1.021,1.021,0,0,1-.2-.382,1.926,1.926,0,0,1,.047-1,3.353,3.353,0,0,1,.387-.876,3.56,3.56,0,0,1,.611-.737,2.342,2.342,0,0,1,.671-.448.975.975,0,0,1,.606-.075.917.917,0,0,1,.107.038.459.459,0,0,1,.14.093.793.793,0,0,1,.131.163.612.612,0,0,1,.079.247q.13-.41.284-.83t.317-.821q.163-.4.317-.765l.284-.672a.289.289,0,0,1,.154-.149.246.246,0,0,1,.21,0,.281.281,0,0,1,.149.373q-.438,1.007-.746,1.809t-.5,1.446a7.768,7.768,0,0,0-.326,1.418,1.847,1.847,0,0,0-.01.555.693.693,0,0,0,.084.238.187.187,0,0,0,.07.07.291.291,0,0,0,.154.033.709.709,0,0,0,.4-.177,2.929,2.929,0,0,0,.494-.5,2.593,2.593,0,0,0,.2-.266c.059-.09.113-.169.163-.238s.106-.158.149-.233a.282.282,0,0,1,.382-.112Zm-3.563,1.231a4.16,4.16,0,0,0,.494-.541,4.894,4.894,0,0,0,.588-1.035c0-.006.006-.016.018-.028.012-.062.025-.115.037-.158a.2.2,0,0,1-.168.019.269.269,0,0,1-.215-.326.976.976,0,0,0,.023-.219.283.283,0,0,0-.014-.088c-.012-.019-.022-.028-.028-.028a.594.594,0,0,0-.285.061,1.571,1.571,0,0,0-.48.331,3.089,3.089,0,0,0-.508.62,2.668,2.668,0,0,0-.322.732,1.521,1.521,0,0,0-.065.62q.037.257.2.312a.494.494,0,0,0,.289-.014A1.28,1.28,0,0,0,475.238,200.309Z" transform="translate(-473.746 -194.129)"/><path class="c" d="M495.149,210.1a1.528,1.528,0,0,1-1.25-.485,1.384,1.384,0,0,1-.215-.424,1.426,1.426,0,0,1-.009-.713,3.07,3.07,0,0,1,.289-.826,3.035,3.035,0,0,1,.523-.723,2.54,2.54,0,0,1,.587-.457,1.544,1.544,0,0,1,.588-.205.749.749,0,0,1,.438.07.619.619,0,0,1,.28.313,1.059,1.059,0,0,1,.023.62,2.137,2.137,0,0,1-.322.723,2.548,2.548,0,0,1-.368.429,2.467,2.467,0,0,1-.453.336,2.293,2.293,0,0,1-1.026.327.648.648,0,0,0,.383.364,1.563,1.563,0,0,0,.532.093,2.067,2.067,0,0,0,1.483-.681,3.412,3.412,0,0,0,.233-.256q.1-.126.177-.228a1.487,1.487,0,0,0,.14-.224.289.289,0,0,1,.168-.14.26.26,0,0,1,.214.019.271.271,0,0,1,.135.163.262.262,0,0,1-.024.21.42.42,0,0,1-.042.084c-.028.05-.069.113-.121.191s-.12.166-.2.266a3.821,3.821,0,0,1-.271.3,3.087,3.087,0,0,1-.9.639A2.364,2.364,0,0,1,495.149,210.1Zm.615-3.283a.107.107,0,0,0-.046.009,1.322,1.322,0,0,0-.359.131,1.741,1.741,0,0,0-.471.364,2.6,2.6,0,0,0-.41.56,2.453,2.453,0,0,0-.243.643,1.868,1.868,0,0,0,.779-.266,1.923,1.923,0,0,0,.6-.583,1.57,1.57,0,0,0,.233-.485.53.53,0,0,0,.009-.327Q495.858,206.817,495.765,206.817Z" transform="translate(-489.088 -203.09)"/><path class="c" d="M529.826,200.131a.263.263,0,0,1,.1.191.257.257,0,0,1-.065.2l-.256.252a3.316,3.316,0,0,1-.714.494,4.443,4.443,0,0,1-1.175.429q-.233.046-.475.07t-.485.023c-.106,0-.214,0-.327-.009s-.224-.016-.336-.028a2.348,2.348,0,0,1-1.679-1.035,5.239,5.239,0,0,1-.774-2.313q-.018-.168-.033-.335c-.009-.112-.02-.23-.033-.355l-1.6.2-.373.466a4.72,4.72,0,0,1-.877.793,1.806,1.806,0,0,1-.979.317.28.28,0,0,1-.2-.475.264.264,0,0,1,.2-.084,1.2,1.2,0,0,0,.671-.233,3.213,3.213,0,0,0,.755-.69l-.159.019h-.028a.267.267,0,0,1-.182-.07.294.294,0,0,1-.1-.172.251.251,0,0,1,.056-.21.3.3,0,0,1,.187-.107l.709-.084q.233-.326.466-.718t.476-.849q.317-.6.583-1.175t.452-1.035q.186-.457.294-.737c.071-.187.107-.283.107-.289a.316.316,0,0,1,.145-.154.239.239,0,0,1,.2-.014.254.254,0,0,1,.159.126.289.289,0,0,1,.037.2q0,.01-.051.257t-.121.662q-.07.415-.14.97t-.107,1.171q-.019.345-.032.667t0,.62l1.035-.121a.238.238,0,0,1,.2.056.3.3,0,0,1,.107.187.26.26,0,0,1-.051.21.288.288,0,0,1-.191.107l-1.082.131a8.328,8.328,0,0,0,.238,1.6,3.618,3.618,0,0,0,.5,1.147,1.812,1.812,0,0,0,1.3.793,4.345,4.345,0,0,0,.979.019,4.231,4.231,0,0,0,.811-.158,3.264,3.264,0,0,0,.639-.266,4.754,4.754,0,0,0,.462-.289,2.752,2.752,0,0,0,.373-.331.259.259,0,0,1,.187-.1A.282.282,0,0,1,529.826,200.131Zm-6.267-2.975q-.009-.335,0-.686t.033-.723q.019-.215.038-.424t.037-.406q-.13.28-.275.569t-.3.588q-.177.336-.35.643t-.35.578Z" transform="translate(-509.01 -192.393)"/><path class="c" d="M550.026,207.217a.779.779,0,0,1-.434-.107.989.989,0,0,1-.247-.219,1.952,1.952,0,0,1-.14-1.427,7.738,7.738,0,0,1,.271-1.166c-.075.037-.162.078-.261.121a2.195,2.195,0,0,1-1.119.186c-.012.044-.026.086-.042.126s-.033.082-.052.126q-.093.215-.191.4t-.182.327c-.056.093-.1.166-.14.219s-.059.083-.065.088a.255.255,0,0,1-.177.121.251.251,0,0,1-.205-.056.283.283,0,0,1-.121-.182.269.269,0,0,1,.056-.21l.173-.275q.079-.126.168-.294t.173-.364l.084-.205a1.6,1.6,0,0,1-.27-.2,1.308,1.308,0,0,1-.4-.616,1.059,1.059,0,0,1,.009-.606.857.857,0,0,1,.233-.359.6.6,0,0,1,.354-.163.643.643,0,0,1,.625.392,1.65,1.65,0,0,1,.159,1.017l-.028.158a1.035,1.035,0,0,0,.35-.023,2.9,2.9,0,0,0,.4-.126q.168-.075.317-.158a2.641,2.641,0,0,0,.252-.158q.121-.084.233-.168a.276.276,0,0,1,.172-.07.259.259,0,0,1,.173.051.314.314,0,0,1,.107.145.246.246,0,0,1,0,.182,13.457,13.457,0,0,0-.392,1.305,5.716,5.716,0,0,0-.145.844,1.672,1.672,0,0,0,.014.476.713.713,0,0,0,.075.21.251.251,0,0,0,.074.065.3.3,0,0,0,.149.028.709.709,0,0,0,.4-.177,2.911,2.911,0,0,0,.494-.5,2.559,2.559,0,0,0,.2-.266c.059-.09.113-.169.163-.238s.106-.158.149-.233a.282.282,0,0,1,.517.056.252.252,0,0,1-.032.214.4.4,0,0,1-.042.079q-.042.07-.117.186t-.177.261q-.1.145-.224.294a3.965,3.965,0,0,1-.578.588A1.288,1.288,0,0,1,550.026,207.217Zm-2.471-4.169c-.013,0-.03.011-.051.032a.3.3,0,0,0-.061.107.543.543,0,0,0-.019.088.45.45,0,0,0,0,.145.6.6,0,0,0,.07.187.88.88,0,0,0,.177.215l.047.028a2.123,2.123,0,0,0,0-.368.868.868,0,0,0-.1-.34.314.314,0,0,1-.033-.037.239.239,0,0,1-.023-.038Z" transform="translate(-530.143 -200.178)"/><path class="c" d="M568.624,207.217a.777.777,0,0,1-.434-.107.98.98,0,0,1-.247-.219,1.949,1.949,0,0,1-.14-1.427,7.7,7.7,0,0,1,.27-1.166c-.075.037-.162.078-.261.121a2.195,2.195,0,0,1-1.119.186q-.018.065-.042.126c-.016.04-.032.082-.051.126q-.093.215-.191.4t-.182.327q-.084.14-.14.219c-.037.053-.059.083-.065.088a.255.255,0,0,1-.177.121.251.251,0,0,1-.205-.056.283.283,0,0,1-.121-.182.27.27,0,0,1,.056-.21l.172-.275c.053-.084.109-.182.168-.294s.116-.233.172-.364l.084-.205a1.6,1.6,0,0,1-.271-.2,1.309,1.309,0,0,1-.4-.616,1.06,1.06,0,0,1,.009-.606.856.856,0,0,1,.233-.359.6.6,0,0,1,.354-.163.643.643,0,0,1,.625.392,1.649,1.649,0,0,1,.158,1.017l-.028.158a1.036,1.036,0,0,0,.35-.023,2.916,2.916,0,0,0,.4-.126q.168-.075.317-.158a2.651,2.651,0,0,0,.252-.158q.121-.084.233-.168a.276.276,0,0,1,.172-.07.259.259,0,0,1,.173.051.314.314,0,0,1,.107.145.246.246,0,0,1,0,.182,13.509,13.509,0,0,0-.392,1.305,5.74,5.74,0,0,0-.145.844,1.681,1.681,0,0,0,.014.476.715.715,0,0,0,.075.21.252.252,0,0,0,.074.065.3.3,0,0,0,.149.028.71.71,0,0,0,.4-.177,2.918,2.918,0,0,0,.494-.5,2.554,2.554,0,0,0,.2-.266c.059-.09.113-.169.163-.238s.106-.158.149-.233a.282.282,0,0,1,.518.056.252.252,0,0,1-.033.214.4.4,0,0,1-.042.079q-.042.07-.116.186t-.177.261q-.1.145-.224.294a3.982,3.982,0,0,1-.578.588A1.289,1.289,0,0,1,568.624,207.217Zm-2.471-4.169c-.013,0-.03.011-.051.032a.3.3,0,0,0-.061.107.571.571,0,0,0-.019.088.457.457,0,0,0,0,.145.6.6,0,0,0,.07.187.877.877,0,0,0,.177.215l.047.028a2.105,2.105,0,0,0,0-.368.863.863,0,0,0-.1-.34.313.313,0,0,1-.033-.037.225.225,0,0,1-.023-.038Z" transform="translate(-544.488 -200.178)"/><path class="c" d="M587.788,210.268a.71.71,0,0,1-.606-.289,1.215,1.215,0,0,1-.224-.681,3.262,3.262,0,0,1-.252.293c-.087.091-.174.173-.261.247a1.832,1.832,0,0,1-.644.364.94.94,0,0,1-.625.009.806.806,0,0,1-.331-.233,1.023,1.023,0,0,1-.2-.382,1.924,1.924,0,0,1,.047-1,3.352,3.352,0,0,1,.387-.876,3.576,3.576,0,0,1,.611-.737,2.346,2.346,0,0,1,.671-.448.976.976,0,0,1,.607-.075,1.316,1.316,0,0,1,.149.065.544.544,0,0,1,.177.154.7.7,0,0,1,.121.294,1.18,1.18,0,0,1-.028.476.257.257,0,0,1-.117.177.276.276,0,0,1-.424-.289,1,1,0,0,0,.024-.219.316.316,0,0,0-.014-.088c-.013-.019-.022-.028-.028-.028a.593.593,0,0,0-.284.061,1.574,1.574,0,0,0-.48.331,3.075,3.075,0,0,0-.508.62,2.679,2.679,0,0,0-.322.732,1.524,1.524,0,0,0-.065.62q.037.257.2.312a.5.5,0,0,0,.289-.014,1.281,1.281,0,0,0,.438-.256,4.116,4.116,0,0,0,.494-.541,4.887,4.887,0,0,0,.588-1.035.272.272,0,0,1,.144-.145.264.264,0,0,1,.2,0,.323.323,0,0,1,.154.14.253.253,0,0,1,.023.2,4.353,4.353,0,0,0-.182,1.091.93.93,0,0,0,.107.522.176.176,0,0,0,.056.051.211.211,0,0,0,.112.024.726.726,0,0,0,.406-.177,3.045,3.045,0,0,0,.509-.5,4.985,4.985,0,0,0,.378-.508c.1-.152.144-.232.144-.238a.255.255,0,0,1,.168-.131.28.28,0,0,1,.345.2.277.277,0,0,1-.028.21.36.36,0,0,1-.047.079c-.031.047-.072.109-.121.186s-.111.165-.182.261-.148.195-.229.294a3.5,3.5,0,0,1-.3.331c-.1.1-.2.182-.289.257A1.289,1.289,0,0,1,587.788,210.268Z" transform="translate(-559.25 -203.229)"/><path class="c" d="M605.329,206.339a.777.777,0,0,1-.434-.107.82.82,0,0,1-.238-.219,1.922,1.922,0,0,1-.149-1.427,10.814,10.814,0,0,1,.522-1.921.269.269,0,0,1,.14-.163.274.274,0,0,1,.215-.014.309.309,0,0,1,.163.149.248.248,0,0,1,0,.215,13.37,13.37,0,0,0-.392,1.305,5.758,5.758,0,0,0-.145.844,1.67,1.67,0,0,0,.014.476.719.719,0,0,0,.074.21.254.254,0,0,0,.075.065.3.3,0,0,0,.15.028.719.719,0,0,0,.4-.173,2.779,2.779,0,0,0,.495-.5q.112-.14.2-.275c.059-.09.113-.169.163-.238s.106-.158.149-.233a.282.282,0,1,1,.494.271.375.375,0,0,1-.047.079c-.031.047-.072.109-.121.186s-.109.165-.177.261-.143.195-.224.294a3.991,3.991,0,0,1-.578.588A1.289,1.289,0,0,1,605.329,206.339Zm.513-4.729a.408.408,0,0,1-.145.205.414.414,0,0,1-.228.093.182.182,0,0,1-.172-.07.21.21,0,0,1-.024-.2.442.442,0,0,1,.144-.2.354.354,0,0,1,.229-.089.187.187,0,0,1,.177.065A.208.208,0,0,1,605.842,201.61Z" transform="translate(-574.562 -199.301)"/><path class="c" d="M606.126,208.68a.264.264,0,0,1-.2-.084.276.276,0,0,1-.079-.2.272.272,0,0,1,.28-.28.242.242,0,0,0,.145-.051,1.071,1.071,0,0,0,.126-.107,2.269,2.269,0,0,0,.392-.569,10.963,10.963,0,0,0,.718-1.875q.149-.513.275-1.007t.215-.886q.088-.392.135-.634t.047-.252a.256.256,0,0,1,.117-.177.282.282,0,0,1,.21-.047.258.258,0,0,1,.177.117.283.283,0,0,1,.046.21q0,.01-.046.256t-.14.644q-.094.4-.219.9t-.275,1.031q-.187.625-.382,1.119t-.383.858Q606.741,208.68,606.126,208.68Zm2.817-7.069a.41.41,0,0,1-.145.205.415.415,0,0,1-.228.093.182.182,0,0,1-.172-.07.21.21,0,0,1-.023-.2.442.442,0,0,1,.145-.2.353.353,0,0,1,.229-.089.187.187,0,0,1,.177.065A.21.21,0,0,1,608.942,201.61Z" transform="translate(-575.639 -199.301)"/><path class="c" d="M622.945,204.18a.709.709,0,0,1-.606-.289,1.215,1.215,0,0,1-.224-.681,3.293,3.293,0,0,1-.252.293c-.087.091-.174.173-.261.247a1.832,1.832,0,0,1-.644.364.94.94,0,0,1-.625.009.8.8,0,0,1-.331-.233,1.029,1.029,0,0,1-.2-.382,1.929,1.929,0,0,1,.047-1,3.351,3.351,0,0,1,.387-.876,3.577,3.577,0,0,1,.611-.737,2.346,2.346,0,0,1,.671-.448.975.975,0,0,1,.606-.075,1.29,1.29,0,0,1,.149.065.545.545,0,0,1,.177.154.7.7,0,0,1,.121.294,1.183,1.183,0,0,1-.028.476.257.257,0,0,1-.117.177.276.276,0,0,1-.424-.289,1.006,1.006,0,0,0,.024-.219.3.3,0,0,0-.014-.088c-.013-.019-.022-.028-.028-.028a.594.594,0,0,0-.284.061,1.574,1.574,0,0,0-.48.331,3.08,3.08,0,0,0-.508.62,2.682,2.682,0,0,0-.322.732,1.522,1.522,0,0,0-.065.62q.037.257.2.312a.5.5,0,0,0,.289-.014,1.284,1.284,0,0,0,.438-.256,4.131,4.131,0,0,0,.494-.541,4.879,4.879,0,0,0,.588-1.035.273.273,0,0,1,.145-.145.263.263,0,0,1,.2,0,.322.322,0,0,1,.154.14.253.253,0,0,1,.023.2,4.35,4.35,0,0,0-.182,1.091.927.927,0,0,0,.107.522.176.176,0,0,0,.056.051.212.212,0,0,0,.112.024.727.727,0,0,0,.406-.177,3.05,3.05,0,0,0,.509-.5,4.923,4.923,0,0,0,.378-.508c.1-.152.144-.232.144-.238a.255.255,0,0,1,.168-.131.28.28,0,0,1,.345.2.278.278,0,0,1-.028.21.365.365,0,0,1-.047.079q-.047.07-.121.186t-.182.261q-.107.145-.229.294a3.476,3.476,0,0,1-.3.331q-.149.145-.289.257A1.29,1.29,0,0,1,622.945,204.18ZM622,199.834a.284.284,0,0,1-.252-.149.3.3,0,0,1-.014-.214.269.269,0,0,1,.135-.168,1.621,1.621,0,0,0,.182-.1q.117-.07.252-.158a2.657,2.657,0,0,0,.256-.191,1.069,1.069,0,0,0,.187-.2.276.276,0,0,1,.187-.107.308.308,0,0,1,.321.242.286.286,0,0,1-.06.21,1.984,1.984,0,0,1-.28.28,3.73,3.73,0,0,1-.331.247q-.163.107-.294.182a1.467,1.467,0,0,1-.158.084A.263.263,0,0,1,622,199.834Z" transform="translate(-586.368 -197.142)"/><path class="c" d="M637.82,210.181a.247.247,0,0,1-.112-.028.273.273,0,0,1-.144-.145.266.266,0,0,1,0-.2q.177-.55.331-1t.359-1.049q.2-.6.438-1.25a.333.333,0,0,1,.149-.158.238.238,0,0,1,.215-.01.337.337,0,0,1,.159.15.22.22,0,0,1,.009.205q-.094.261-.182.5t-.163.485q.159-.224.308-.41t.289-.345a1.477,1.477,0,0,1,.96-.606.476.476,0,0,1,.41.187.728.728,0,0,1,.107.56q-.051.345-.182.9-.028.094-.051.182c-.015.059-.03.123-.042.191a6.431,6.431,0,0,0-.177.858,1.24,1.24,0,0,0,0,.284.21.21,0,0,0,.032.1.133.133,0,0,0,.07.028.509.509,0,0,0,.089.009.726.726,0,0,0,.4-.177,2.817,2.817,0,0,0,.5-.5q.112-.14.205-.27t.163-.233a2.664,2.664,0,0,0,.144-.242.255.255,0,0,1,.168-.131.289.289,0,0,1,.215.028.254.254,0,0,1,.13.168.287.287,0,0,1-.028.214.389.389,0,0,1-.042.079c-.028.047-.067.109-.117.186s-.109.165-.177.261-.143.195-.224.294a3.621,3.621,0,0,1-.578.578,1.237,1.237,0,0,1-.755.308.709.709,0,0,1-.6-.252.665.665,0,0,1-.14-.322,1.706,1.706,0,0,1-.01-.4,4.121,4.121,0,0,1,.07-.471q.051-.252.116-.522l.1-.382c.031-.137.061-.261.089-.373a2.905,2.905,0,0,0,.061-.308c.012-.068.02-.123.023-.163s0-.07,0-.088a.663.663,0,0,0-.135.065,1.4,1.4,0,0,0-.261.219,5.937,5.937,0,0,0-.4.457q-.238.294-.555.779-.205.3-.383.587t-.313.518q-.135.228-.284.517A.284.284,0,0,1,637.82,210.181Z" transform="translate(-600.087 -203.133)"/></g><g transform="translate(0 10.015)"><path class="d" d="M528.065,152.23l-.024-.091A.593.593,0,0,0,528.065,152.23Z" transform="translate(-444.596 -142.651)"/><g transform="translate(0 2.072)"><g class="e"><g transform="translate(-10.005 -11.896)"><rect class="f" width="127.74" height="24.61" transform="translate(0.528 6.738)"/><path class="g" d="M119.75,152.324s3.039-4.32,9.739-2.687,5.829,1.318,7.622-.1,5.082-3.976,6.81-2.76,9.855,4.35,18.378,3.391,8.575-3.009,11.211-2.943,4.327,2.746,10.192,2.6,10.3-1.793,12.946-2.02,2.658-.813,8.194.5,9.885,3.178,12.85,1.787,5.689-4.84,14.132-2.577,13.173.623,14.659-.219,2,2.1,2,2.1l-.227,9.08-1.268,15.5-127.619-6.421Z" transform="translate(-119.368 -128.444)"/><path class="h" d="M120.4,84.677c4.1-4.1,7.032-7.324,19.923-4.688s12.305,1.758,19.63,2.93,10.84-.293,16.7-1.172,7.324-2.93,12.6-2.637,7.617,2.051,14.356,4.1a64.278,64.278,0,0,0,18.751,2.344c5.274,0,12.012-3.809,12.012-3.809s2.344-4.395,9.082-4.395,8.79-9.668,8.79-9.668H120.4Z" transform="translate(-120.161 -67.684)"/><path class="i" d="M121.568,149.405s11.028-5.882,12.253-8.189,7.084-.256,7.67.037,1.172,2.344,6.446,3.516,6.739.879,11.133.293,3.516-.586,7.324-2.344,6.153-.293,8.5,0,3.223,2.051,7.032,2.051,10.254-4.1,12.012-5.567a32.082,32.082,0,0,0,3.223-2.93c1.465-1.465,3.976.412,5.211.5s5.63,4.482,6.509,5.068a25.643,25.643,0,0,0,8.2,2.051c2.344,0,7.617.879,10.547,0s10.547-2.637,11.719-2.93-2.637-2.051,3.809-.293,8.2,2.051,8.2,2.051v8.2l.879,9.375-41.31,4.1L120.4,162.934Z" transform="translate(-120.161 -120.159)"/></g></g></g><g transform="translate(12.03 2.072)"><g class="j"><g transform="translate(-22.034 -11.896)"><rect class="f" width="127.74" height="24.61" transform="translate(0.528 6.738)"/><path class="g" d="M119.75,152.324s3.039-4.32,9.739-2.687,5.829,1.318,7.622-.1,5.082-3.976,6.81-2.76,9.855,4.35,18.378,3.391,8.575-3.009,11.211-2.943,4.327,2.746,10.192,2.6,10.3-1.793,12.946-2.02,2.658-.813,8.194.5,9.885,3.178,12.85,1.787,5.689-4.84,14.132-2.577,13.173.623,14.659-.219,2,2.1,2,2.1l-.227,9.08-1.268,15.5-127.619-6.421Z" transform="translate(-119.368 -128.444)"/><path class="h" d="M120.4,84.677c4.1-4.1,7.032-7.324,19.923-4.688s12.305,1.758,19.63,2.93,10.84-.293,16.7-1.172,7.324-2.93,12.6-2.637,7.617,2.051,14.356,4.1a64.278,64.278,0,0,0,18.751,2.344c5.274,0,12.012-3.809,12.012-3.809s2.344-4.395,9.082-4.395,8.79-9.668,8.79-9.668H120.4Z" transform="translate(-120.161 -67.684)"/><path class="i" d="M121.568,149.405s11.028-5.882,12.253-8.189,7.084-.256,7.67.037,1.172,2.344,6.446,3.516,6.739.879,11.133.293,3.516-.586,7.324-2.344,6.153-.293,8.5,0,3.223,2.051,7.032,2.051,10.254-4.1,12.012-5.567a32.082,32.082,0,0,0,3.223-2.93c1.465-1.465,3.976.412,5.211.5s5.63,4.482,6.509,5.068a25.643,25.643,0,0,0,8.2,2.051c2.344,0,7.617.879,10.547,0s10.547-2.637,11.719-2.93-2.637-2.051,3.809-.293,8.2,2.051,8.2,2.051v8.2l.879,9.375-41.31,4.1L120.4,162.934Z" transform="translate(-120.161 -120.159)"/></g></g></g><g transform="translate(30.176 2.072)"><g class="k"><g transform="translate(-40.181 -11.896)"><rect class="f" width="127.74" height="24.61" transform="translate(0.528 6.738)"/><path class="g" d="M119.75,152.324s3.039-4.32,9.739-2.687,5.829,1.318,7.622-.1,5.082-3.976,6.81-2.76,9.855,4.35,18.378,3.391,8.575-3.009,11.211-2.943,4.327,2.746,10.192,2.6,10.3-1.793,12.946-2.02,2.658-.813,8.194.5,9.885,3.178,12.85,1.787,5.689-4.84,14.132-2.577,13.173.623,14.659-.219,2,2.1,2,2.1l-.227,9.08-1.268,15.5-127.619-6.421Z" transform="translate(-119.368 -128.444)"/><path class="h" d="M120.4,84.677c4.1-4.1,7.032-7.324,19.923-4.688s12.305,1.758,19.63,2.93,10.84-.293,16.7-1.172,7.324-2.93,12.6-2.637,7.617,2.051,14.356,4.1a64.278,64.278,0,0,0,18.751,2.344c5.274,0,12.012-3.809,12.012-3.809s2.344-4.395,9.082-4.395,8.79-9.668,8.79-9.668H120.4Z" transform="translate(-120.161 -67.684)"/><path class="i" d="M121.568,149.405s11.028-5.882,12.253-8.189,7.084-.256,7.67.037,1.172,2.344,6.446,3.516,6.739.879,11.133.293,3.516-.586,7.324-2.344,6.153-.293,8.5,0,3.223,2.051,7.032,2.051,10.254-4.1,12.012-5.567a32.082,32.082,0,0,0,3.223-2.93c1.465-1.465,3.976.412,5.211.5s5.63,4.482,6.509,5.068a25.643,25.643,0,0,0,8.2,2.051c2.344,0,7.617.879,10.547,0s10.547-2.637,11.719-2.93-2.637-2.051,3.809-.293,8.2,2.051,8.2,2.051v8.2l.879,9.375-41.31,4.1L120.4,162.934Z" transform="translate(-120.161 -120.159)"/></g></g></g><g transform="translate(42.92 2.072)"><g class="l"><g transform="translate(-52.925 -11.896)"><rect class="f" width="127.74" height="24.61" transform="translate(0.528 6.738)"/><path class="g" d="M119.75,152.324s3.039-4.32,9.739-2.687,5.829,1.318,7.622-.1,5.082-3.976,6.81-2.76,9.855,4.35,18.378,3.391,8.575-3.009,11.211-2.943,4.327,2.746,10.192,2.6,10.3-1.793,12.946-2.02,2.658-.813,8.194.5,9.885,3.178,12.85,1.787,5.689-4.84,14.132-2.577,13.173.623,14.659-.219,2,2.1,2,2.1l-.227,9.08-1.268,15.5-127.619-6.421Z" transform="translate(-119.368 -128.444)"/><path class="h" d="M120.4,84.677c4.1-4.1,7.032-7.324,19.923-4.688s12.305,1.758,19.63,2.93,10.84-.293,16.7-1.172,7.324-2.93,12.6-2.637,7.617,2.051,14.356,4.1a64.278,64.278,0,0,0,18.751,2.344c5.274,0,12.012-3.809,12.012-3.809s2.344-4.395,9.082-4.395,8.79-9.668,8.79-9.668H120.4Z" transform="translate(-120.161 -67.684)"/><path class="i" d="M121.568,149.405s11.028-5.882,12.253-8.189,7.084-.256,7.67.037,1.172,2.344,6.446,3.516,6.739.879,11.133.293,3.516-.586,7.324-2.344,6.153-.293,8.5,0,3.223,2.051,7.032,2.051,10.254-4.1,12.012-5.567a32.082,32.082,0,0,0,3.223-2.93c1.465-1.465,3.976.412,5.211.5s5.63,4.482,6.509,5.068a25.643,25.643,0,0,0,8.2,2.051c2.344,0,7.617.879,10.547,0s10.547-2.637,11.719-2.93-2.637-2.051,3.809-.293,8.2,2.051,8.2,2.051v8.2l.879,9.375-41.31,4.1L120.4,162.934Z" transform="translate(-120.161 -120.159)"/></g></g></g><g transform="translate(63.441 2.072)"><g class="m"><g transform="translate(-73.446 -11.896)"><rect class="f" width="127.74" height="24.61" transform="translate(0.528 6.738)"/><path class="g" d="M119.75,152.324s3.039-4.32,9.739-2.687,5.829,1.318,7.622-.1,5.082-3.976,6.81-2.76,9.855,4.35,18.378,3.391,8.575-3.009,11.211-2.943,4.327,2.746,10.192,2.6,10.3-1.793,12.946-2.02,2.658-.813,8.194.5,9.885,3.178,12.85,1.787,5.689-4.84,14.132-2.577,13.173.623,14.659-.219,2,2.1,2,2.1l-.227,9.08-1.268,15.5-127.619-6.421Z" transform="translate(-119.368 -128.444)"/><path class="h" d="M120.4,84.677c4.1-4.1,7.032-7.324,19.923-4.688s12.305,1.758,19.63,2.93,10.84-.293,16.7-1.172,7.324-2.93,12.6-2.637,7.617,2.051,14.356,4.1a64.278,64.278,0,0,0,18.751,2.344c5.274,0,12.012-3.809,12.012-3.809s2.344-4.395,9.082-4.395,8.79-9.668,8.79-9.668H120.4Z" transform="translate(-120.161 -67.684)"/><path class="i" d="M121.568,149.405s11.028-5.882,12.253-8.189,7.084-.256,7.67.037,1.172,2.344,6.446,3.516,6.739.879,11.133.293,3.516-.586,7.324-2.344,6.153-.293,8.5,0,3.223,2.051,7.032,2.051,10.254-4.1,12.012-5.567a32.082,32.082,0,0,0,3.223-2.93c1.465-1.465,3.976.412,5.211.5s5.63,4.482,6.509,5.068a25.643,25.643,0,0,0,8.2,2.051c2.344,0,7.617.879,10.547,0s10.547-2.637,11.719-2.93-2.637-2.051,3.809-.293,8.2,2.051,8.2,2.051v8.2l.879,9.375-41.31,4.1L120.4,162.934Z" transform="translate(-120.161 -120.159)"/></g></g></g><g transform="translate(70.548 1.486)"><g class="n"><g transform="translate(-81.138 -11.896)"><rect class="f" width="127.74" height="24.61" transform="translate(0.528 6.739)"/><path class="g" d="M117.187,149.761s3.039-4.32,9.739-2.687,5.828,1.318,7.623-.1,5.082-3.976,6.81-2.76,9.856,4.35,18.379,3.391,8.574-3.009,11.21-2.943,4.327,2.746,10.192,2.6,10.3-1.793,12.946-2.02,2.658-.813,8.194.5,9.885,3.178,12.85,1.787,5.69-4.84,14.132-2.577,13.173.623,14.659-.219,2,2.1,2,2.1l-.228,9.079-1.268,15.5-127.619-6.421Z" transform="translate(-116.806 -125.881)"/><path class="h" d="M117.834,82.114c4.1-4.1,7.032-7.324,19.923-4.688s12.305,1.758,19.63,2.93,10.84-.293,16.7-1.172,7.325-2.93,12.6-2.637,7.618,2.051,14.356,4.1a64.287,64.287,0,0,0,18.751,2.344c5.273,0,12.012-3.809,12.012-3.809s2.344-4.395,9.082-4.395,8.789-9.669,8.789-9.669H117.834Z" transform="translate(-117.599 -65.121)"/><path class="i" d="M119.006,146.843s11.028-5.882,12.253-8.189,7.084-.256,7.67.037,1.172,2.344,6.445,3.516,6.739.879,11.133.293,3.516-.586,7.324-2.344,6.153-.293,8.5,0,3.223,2.051,7.032,2.051,10.254-4.1,12.012-5.566a32.1,32.1,0,0,0,3.223-2.93c1.465-1.465,3.975.412,5.21.5s5.63,4.482,6.509,5.068a25.65,25.65,0,0,0,8.2,2.051c2.344,0,7.618.879,10.547,0s10.547-2.637,11.719-2.93-2.637-2.051,3.809-.293,8.2,2.051,8.2,2.051v8.2l.879,9.375-41.31,4.1-90.531-1.465Z" transform="translate(-117.599 -117.597)"/></g></g></g><g transform="translate(83.44)"><g class="o"><g transform="translate(-93.445 -9.531)"><rect class="f" width="127.74" height="24.61" transform="translate(0.528 6.739)"/><path class="g" d="M119.75,153.605s3.039-4.32,9.739-2.687,5.829,1.318,7.622-.1,5.082-3.976,6.81-2.76,9.855,4.35,18.378,3.391,8.575-3.009,11.211-2.943,4.327,2.746,10.192,2.6,10.3-1.793,12.946-2.02,2.658-.813,8.194.5,9.885,3.178,12.85,1.787,5.689-4.84,14.132-2.577,13.173.623,14.659-.219,2,2.1,2,2.1l-.227,9.079-1.268,15.5-127.619-6.421Z" transform="translate(-119.368 -129.725)"/><path class="h" d="M120.4,85.958c4.1-4.1,7.032-7.325,19.923-4.688s12.305,1.758,19.63,2.93,10.84-.293,16.7-1.172,7.324-2.93,12.6-2.637,7.617,2.051,14.356,4.1a64.278,64.278,0,0,0,18.751,2.344c5.274,0,12.012-3.809,12.012-3.809s2.344-4.395,9.082-4.395,8.79-9.668,8.79-9.668H120.4Z" transform="translate(-120.161 -68.965)"/><path class="i" d="M121.568,150.687S132.6,144.8,133.821,142.5s7.084-.256,7.67.037,1.172,2.344,6.446,3.516,6.739.879,11.133.293,3.516-.586,7.324-2.344,6.153-.293,8.5,0,3.223,2.051,7.032,2.051,10.254-4.1,12.012-5.567a32.081,32.081,0,0,0,3.223-2.93c1.465-1.465,3.976.412,5.211.5s5.63,4.482,6.509,5.068a25.649,25.649,0,0,0,8.2,2.051c2.344,0,7.617.879,10.547,0s10.547-2.637,11.719-2.93-2.637-2.051,3.809-.293,8.2,2.051,8.2,2.051v8.2l.879,9.375-41.31,4.1L120.4,164.216Z" transform="translate(-120.161 -121.44)"/></g></g></g><g transform="translate(103.673 1.785)"><g class="p"><g transform="translate(-112.799 -11.609)"><rect class="f" width="127.74" height="24.61" transform="translate(0.528 6.738)"/><path class="g" d="M123.594,152.324s3.039-4.32,9.739-2.687,5.828,1.318,7.622-.1,5.082-3.976,6.81-2.76,9.856,4.35,18.379,3.391,8.575-3.009,11.21-2.943,4.327,2.746,10.192,2.6,10.3-1.793,12.946-2.02,2.658-.813,8.193.5,9.885,3.178,12.85,1.787,5.69-4.84,14.132-2.577,13.173.623,14.659-.219,2,2.1,2,2.1l-.228,9.08-1.267,15.5-127.619-6.421Z" transform="translate(-123.212 -128.444)"/><path class="h" d="M124.24,84.677c4.1-4.1,7.032-7.324,19.923-4.688s12.305,1.758,19.63,2.93,10.84-.293,16.7-1.172,7.325-2.93,12.6-2.637,7.618,2.051,14.356,4.1A64.277,64.277,0,0,0,226.2,85.556c5.274,0,12.012-3.809,12.012-3.809s2.344-4.395,9.082-4.395,8.789-9.668,8.789-9.668H124.24Z" transform="translate(-124.005 -67.684)"/><path class="i" d="M125.412,149.405s11.028-5.882,12.253-8.189,7.084-.256,7.67.037,1.172,2.344,6.446,3.516,6.738.879,11.133.293,3.516-.586,7.325-2.344,6.153-.293,8.5,0,3.223,2.051,7.032,2.051,10.254-4.1,12.012-5.567a32.062,32.062,0,0,0,3.223-2.93c1.465-1.465,3.976.412,5.211.5s5.63,4.482,6.509,5.068a25.644,25.644,0,0,0,8.2,2.051c2.344,0,7.618.879,10.547,0s10.548-2.637,11.719-2.93-2.637-2.051,3.809-.293,8.2,2.051,8.2,2.051v8.2l.879,9.375-41.31,4.1-90.531-1.465Z" transform="translate(-124.005 -120.159)"/></g></g></g></g></g></svg>