<svg xmlns="http://www.w3.org/2000/svg" width="220.057" height="111.71" viewBox="0 0 220.057 111.71"><defs><style>.a{fill:#bf0b13;}.b{fill:#104882;}.c{fill:#fff;}.d,.f{fill:#c2321d;}.e{fill:#ebd63b;}.f{fill-rule:evenodd;}</style></defs><g transform="translate(-822.863 -150.006)"><rect class="a" width="40.892" height="14.325" transform="translate(1002.028 247.391)"/><path class="b" d="M831.477,260.474v-4.486h-4.534v4.486h-2.459V249.3h2.459v4.423h4.534V249.3h2.459v11.176Z"/><path class="b" d="M840.375,260.974v-.926a3.288,3.288,0,0,1-2.586,1.086,2.648,2.648,0,0,1-2.922-2.342c-.01-.092-.015-.184-.016-.276v-.032c0-1.868,1.421-2.73,3.449-2.73a6.051,6.051,0,0,1,2.091.351v-.144c0-1.005-.622-1.564-1.836-1.564a6.317,6.317,0,0,0-2.363.462l-.606-1.852a7.562,7.562,0,0,1,3.321-.686c2.65,0,3.815,1.373,3.815,3.688v4.965Zm.048-3.448a3.755,3.755,0,0,0-1.549-.319c-1.037,0-1.676.414-1.676,1.181v.032c0,.654.543,1.038,1.325,1.038,1.134,0,1.9-.623,1.9-1.5Z"/><path class="b" d="M848.853,261.163a4.369,4.369,0,0,1-4.453-4.283c0-.046,0-.092,0-.139v-.032a4.394,4.394,0,0,1,4.332-4.455h.154a4.212,4.212,0,0,1,3.417,1.437l-1.485,1.6a2.5,2.5,0,0,0-1.948-.943,2.188,2.188,0,0,0-2.08,2.289l0,.037v.033a2.193,2.193,0,0,0,2.017,2.357c.051,0,.1.006.155.006a2.712,2.712,0,0,0,1.964-.91l1.421,1.436a4.311,4.311,0,0,1-3.5,1.565"/><path class="b" d="M861.642,257.539h-5.951a1.987,1.987,0,0,0,2.092,1.676,2.8,2.8,0,0,0,2.075-.878l1.389,1.229a4.535,4.535,0,0,1-7.969-2.482c-.005-.113-.006-.227,0-.34v-.032a4.261,4.261,0,0,1,4.063-4.45c.056,0,.112,0,.168,0,2.858,0,4.167,2.219,4.167,4.646v.032c0,.24-.016.383-.031.607m-4.136-3.337a1.909,1.909,0,0,0-1.852,1.82h3.656a1.835,1.835,0,0,0-1.8-1.82"/><path class="b" d="M874.111,260.974V256.2c0-1.149-.511-1.74-1.421-1.74s-1.469.591-1.469,1.74v4.774h-2.43V256.2c0-1.149-.511-1.74-1.421-1.74s-1.469.591-1.469,1.74v4.774h-2.423v-8.557H865.9v1.213a3.055,3.055,0,0,1,2.523-1.373,2.558,2.558,0,0,1,2.41,1.357,3.528,3.528,0,0,1,2.81-1.357c1.805,0,2.89,1.086,2.89,3.145v5.572Z"/><path class="b" d="M882.844,261.163a4.448,4.448,0,0,1-4.611-4.279c0-.047,0-.1,0-.143v-.033a4.634,4.634,0,0,1,9.261-.034v.032a4.492,4.492,0,0,1-4.524,4.458l-.121,0m2.251-4.455a2.273,2.273,0,0,0-2.183-2.361l-.068,0a2.193,2.193,0,0,0-2.225,2.158c0,.058,0,.116,0,.173v.032a2.274,2.274,0,0,0,2.182,2.362l.069,0a2.193,2.193,0,0,0,2.224-2.16c0-.057,0-.114-.005-.171Z"/><path class="b" d="M892.247,261.131a6,6,0,0,1-3.672-1.293l1.038-1.6a4.835,4.835,0,0,0,2.7,1.022c.7,0,1.022-.255,1.022-.639v-.032c0-.526-.83-.7-1.772-.99-1.2-.351-2.555-.91-2.555-2.57V255c0-1.74,1.4-2.714,3.129-2.714a5.917,5.917,0,0,1,3.194.99l-.926,1.676a5.085,5.085,0,0,0-2.315-.8c-.591,0-.894.255-.894.591v.032c0,.479.814.7,1.74,1.022,1.2.4,2.586.973,2.586,2.538v.032c0,1.9-1.421,2.762-3.273,2.762"/><path class="b" d="M907.367,252.063v8.909h-2.459v-8.909h-3.4V249.8h9.26v2.267Z"/><path class="b" d="M916.946,260.974v-1.213a3.023,3.023,0,0,1-2.507,1.373c-1.836,0-2.9-1.213-2.9-3.177v-5.54h2.422v4.773c0,1.15.542,1.741,1.468,1.741s1.517-.591,1.517-1.741v-4.773h2.427v8.557Z"/><path class="b" d="M932.321,261.051h-2.172l-4.519-11.256h2.714l2.922,7.872,2.921-7.872h2.651Z"/><path class="b" d="M938.037,249.317h2.554v2.155h-2.554Zm.064,3.1h2.426v8.557H938.1Z"/><path class="b" d="M948.991,260.974v-1.229a3.14,3.14,0,0,1-2.666,1.389c-2,0-3.9-1.565-3.9-4.422v-.038c0-2.858,1.868-4.423,3.9-4.423a3.29,3.29,0,0,1,2.666,1.277v-4.214h2.426v11.66Zm.032-4.294a2.1,2.1,0,1,0-4.167,0v.032a2.1,2.1,0,1,0,4.167,0Z"/><path class="b" d="M958.6,260.974v-.926a3.29,3.29,0,0,1-2.587,1.086,2.647,2.647,0,0,1-2.921-2.341c-.01-.092-.015-.184-.016-.277v-.032c0-1.868,1.421-2.73,3.448-2.73a6.057,6.057,0,0,1,2.092.351v-.144c0-1.005-.623-1.564-1.836-1.564a6.318,6.318,0,0,0-2.363.462l-.607-1.852a7.562,7.562,0,0,1,3.321-.686c2.65,0,3.816,1.373,3.816,3.688v4.965Zm.048-3.448a3.771,3.771,0,0,0-1.549-.319c-1.038,0-1.676.414-1.676,1.181v.032c0,.654.543,1.038,1.325,1.038,1.133,0,1.9-.623,1.9-1.5Z"/><path class="b" d="M976.816,260.974v-7.3l-3.145,4.774h-.064l-3.113-4.726v7.249h-2.411V249.795h2.65l2.938,4.726,2.938-4.726h2.651v11.179Z"/><path class="b" d="M986.7,260.974v-.926a3.286,3.286,0,0,1-2.587,1.086,2.647,2.647,0,0,1-2.921-2.341c-.01-.092-.015-.184-.016-.277v-.032c0-1.868,1.421-2.73,3.448-2.73a6.057,6.057,0,0,1,2.092.351v-.144c0-1.005-.623-1.564-1.836-1.564a6.318,6.318,0,0,0-2.363.462l-.607-1.852a7.562,7.562,0,0,1,3.321-.686c2.651,0,3.816,1.373,3.816,3.688v4.965Zm.048-3.448a3.755,3.755,0,0,0-1.549-.319c-1.037,0-1.676.414-1.676,1.181v.032c0,.654.543,1.038,1.325,1.038,1.134,0,1.9-.623,1.9-1.5Zm-2.523-6.051,1.8-2.826,2.091.91-2.043,1.916Z"/><path class="b" d="M994.139,261.131a5.99,5.99,0,0,1-3.672-1.293l1.038-1.6a4.835,4.835,0,0,0,2.7,1.022c.7,0,1.022-.255,1.022-.639v-.032c0-.526-.83-.7-1.772-.99-1.2-.351-2.555-.91-2.555-2.57V255c0-1.74,1.4-2.714,3.129-2.714a5.914,5.914,0,0,1,3.193.99l-.925,1.676a5.089,5.089,0,0,0-2.316-.8c-.59,0-.893.255-.893.591v.032c0,.479.813.7,1.74,1.022,1.2.4,2.586.973,2.586,2.538v.032c0,1.9-1.421,2.762-3.273,2.762"/><path class="c" d="M1006.656,252.031v2.379h5.335v2.235h-5.332v4.327H1004.2V249.8h8.51v2.235Z"/><path class="c" d="M1019.029,260.974v-.926a3.288,3.288,0,0,1-2.586,1.086,2.648,2.648,0,0,1-2.922-2.342c-.01-.092-.015-.184-.016-.276v-.032c0-1.868,1.421-2.73,3.449-2.73a6.078,6.078,0,0,1,2.091.351v-.144c0-1.005-.622-1.564-1.836-1.564a6.317,6.317,0,0,0-2.363.462l-.606-1.852a7.562,7.562,0,0,1,3.321-.686c2.65,0,3.815,1.373,3.815,3.688v4.965Zm.048-3.448a3.755,3.755,0,0,0-1.549-.319c-1.037,0-1.676.414-1.676,1.181v.032c0,.654.543,1.038,1.325,1.038,1.134,0,1.9-.623,1.9-1.5Z"/><path class="c" d="M1027.507,261.163a4.369,4.369,0,0,1-4.453-4.283c0-.046,0-.092,0-.139v-.032a4.394,4.394,0,0,1,4.332-4.455h.154a4.212,4.212,0,0,1,3.417,1.437l-1.486,1.6a2.5,2.5,0,0,0-1.947-.943,2.187,2.187,0,0,0-2.078,2.291l0,.04v.033a2.193,2.193,0,0,0,2.017,2.357c.051,0,.1.006.155.006a2.712,2.712,0,0,0,1.964-.91L1031,259.6a4.305,4.305,0,0,1-3.5,1.565"/><path class="c" d="M1032.691,252.414h2.426v8.557h-2.426Zm.159-.942,1.8-2.826,2.091.91-2.043,1.916Z"/><rect class="c" width="2.427" height="11.655" transform="translate(1037.517 249.317)"/><path class="d" d="M850.111,171.8l-5.5,20.692L839.017,171.8H828.168v29.584H835.4l-.59-23.808,6.561,23.808H847.8l6.6-23.808-.586,23.808h7.137V171.8Z"/><path class="d" d="M870.148,191.784a5.1,5.1,0,0,0,.08,1.3,4.8,4.8,0,0,0,4.918,4.152,6.208,6.208,0,0,0,2.116-.381c2.181-.751,3.138-2.968,3.435-3.514l4.878,2.511a26.761,26.761,0,0,1-1.845,2.472,12.221,12.221,0,0,1-9.086,3.856,13.226,13.226,0,0,1-3.95-.586c-4.881-1.51-7.156-5.787-7.156-10.725a13.149,13.149,0,0,1,2.828-8.555c1.342-1.51,3.645-3.474,8.441-3.474,1.475,0,5.849.171,8.587,3.987,2.471,3.4,2.394,7.912,2.431,8.959Zm6.6-7.917a4.327,4.327,0,0,0-1.971-.416,4.439,4.439,0,0,0-4.079,2.637,7.668,7.668,0,0,0-.512,1.675h8.96a4.351,4.351,0,0,0-2.4-3.9"/><path class="d" d="M895.086,183.992V193.8a4.033,4.033,0,0,0,.171,1.759,1.764,1.764,0,0,0,1.515.712c.76,0,1.518-.045,2.269-.045v4.984a19.018,19.018,0,0,1-3.4.341,12.6,12.6,0,0,1-1.346-.046,6.118,6.118,0,0,1-4-1.344c-1.68-1.463-1.6-3.679-1.6-5.7V183.953h-3.189v-3.942h3.2v-6.829h6.385v6.869h4.3v3.941Z"/><path class="d" d="M911.538,185.29a13.282,13.282,0,0,0-2.019.456c-1.72.6-2.017,1.681-2.017,3.315v12.326h-6.427V179.51h6.263v2.264a8.068,8.068,0,0,1,2.56-1.64,12.321,12.321,0,0,1,3.779-.872v5.7Z"/><path class="d" d="M933.415,199.5a12.276,12.276,0,0,1-7.954,2.557c-1.122,0-5.587-.211-8.62-3.149-1.3-1.253-3.145-3.931-3.145-8.5a12.139,12.139,0,0,1,2.561-7.8c1.509-1.8,4.548-4.055,10.09-3.724a11.43,11.43,0,0,1,6.9,2.352,11.727,11.727,0,0,1,4.029,9.215,11.457,11.457,0,0,1-3.861,9.051M928.4,184.784a5.153,5.153,0,0,0-3.189-.832,5.367,5.367,0,0,0-2.436.627c-1.176.672-2.566,2.552-2.566,5.781a8.588,8.588,0,0,0,1.14,4.4,4.873,4.873,0,0,0,4.2,2.136c3.583,0,5.175-2.973,5.175-6.248,0-3.3-1.057-4.984-2.321-5.867"/><path class="d" d="M959.111,197.861a9.1,9.1,0,0,1-3.446,3.145,9.449,9.449,0,0,1-4.084.8c-2.31,0-3.486-.672-5.371-1.845v9.005h-6.567V179.51h5.77l.041,2.136a3.968,3.968,0,0,1,.919-.963,8.038,8.038,0,0,1,5.208-1.674,8.9,8.9,0,0,1,6.6,2.762,12.3,12.3,0,0,1,2.951,8.635,14.157,14.157,0,0,1-2.025,7.455m-5.716-12.906a4.064,4.064,0,0,0-1.924-1.259,3.287,3.287,0,0,0-.931-.119c-2.4,0-4.62,2.175-4.62,6.908a9.088,9.088,0,0,0,1.137,4.9,4.246,4.246,0,0,0,1.258,1.174,3.742,3.742,0,0,0,2.054.58,3.8,3.8,0,0,0,3.488-2.26,8.747,8.747,0,0,0,1.057-4.564c0-.625.09-3.479-1.519-5.364"/><path class="d" d="M981.74,199.5a12.242,12.242,0,0,1-7.943,2.557c-1.136,0-5.592-.211-8.62-3.149-1.3-1.253-3.156-3.931-3.156-8.5a12.1,12.1,0,0,1,2.566-7.8c1.512-1.8,4.546-4.055,10.09-3.724a11.4,11.4,0,0,1,6.894,2.352,11.731,11.731,0,0,1,4.036,9.215,11.41,11.41,0,0,1-3.867,9.051m-5-14.712a5.187,5.187,0,0,0-3.2-.832,5.377,5.377,0,0,0-2.432.627c-1.184.672-2.559,2.552-2.559,5.781a8.691,8.691,0,0,0,1.13,4.4,4.888,4.888,0,0,0,4.2,2.136c3.574,0,5.172-2.973,5.172-6.248,0-3.3-1.047-4.984-2.315-5.867"/><rect class="d" width="6.434" height="29.584" transform="translate(988.193 171.803)"/><path class="d" d="M998.784,171.8h6.442v4.99h-6.442Zm0,7.707h6.442v21.871h-6.442Z"/><path class="d" d="M1026.345,197.947c-1.936,2.893-5.98,4.015-9.3,4.015a16.24,16.24,0,0,1-8.031-2.175,15.455,15.455,0,0,1-2.6-2.051l4.118-3.686a9.444,9.444,0,0,0,1.174,1.043,8.9,8.9,0,0,0,5.223,1.971,7.26,7.26,0,0,0,1.594-.211c.963-.205,2.267-.752,2.267-1.97-.046-1.5-1.971-1.676-4.328-2.051-4.574-.752-6.687-1.806-7.826-3.982a6.194,6.194,0,0,1-.672-2.722,6.811,6.811,0,0,1,.934-3.27c1-1.8,3.486-4.06,8.361-4.06a16.481,16.481,0,0,1,7.951,2.09c.627.381,1.219.758,1.8,1.179l-3.988,3.685a11.456,11.456,0,0,0-1.178-.837,9.335,9.335,0,0,0-4.329-1.344,6.212,6.212,0,0,0-2.068.375,1.488,1.488,0,0,0-1,1.305,1.344,1.344,0,0,0,.592,1.048,11.7,11.7,0,0,0,2.932.792l2.9.626c3.492.758,6.51,2.518,6.51,6.584a6.607,6.607,0,0,1-1.036,3.646"/><rect class="e" width="110.757" height="2.432" transform="translate(824.204 205.311)"/><path class="e" d="M1030.266,207.749h-23.324l-.006-.012H950.811v-2.346h79.307"/><path class="e" d="M825.1,207.749h-2.236V194.474l2.236,3.775Z"/><path class="e" d="M1035.141,198.943a2.566,2.566,0,1,0,2.575,2.563,2.566,2.566,0,0,0-2.575-2.563"/><path class="e" d="M1031.73,207.743h6.822a2.84,2.84,0,0,0,2.848-2.831v-6.8a2.842,2.842,0,0,0-2.848-2.836h-6.822a2.839,2.839,0,0,0-2.843,2.833v6.217H1027.3v3.417Zm3.411-2.069a4.164,4.164,0,1,1,4.181-4.17,4.164,4.164,0,0,1-4.181,4.17"/><path class="b" d="M853.172,235.015a14.614,14.614,0,0,1-10.8,4.842,15.338,15.338,0,0,1-6.021-1.253c-7.8-3.509-8.179-12.069-8.179-14.4a16.474,16.474,0,0,1,3.6-10.526,13.426,13.426,0,0,1,10.73-5.092,13.837,13.837,0,0,1,10.419,4.588,18.188,18.188,0,0,1,2.057,3.048l-5.821,2.882a12.912,12.912,0,0,0-.966-1.63,6.669,6.669,0,0,0-5.365-2.836,6.5,6.5,0,0,0-4.478,1.754c-1.229,1.127-2.813,3.583-2.813,7.638a14.385,14.385,0,0,0,.125,2.011c.5,4.038,2.267,5.883,3.9,6.794a6.3,6.3,0,0,0,3.27.843c4.141,0,5.741-3.212,6.407-4.34l5.883,2.968a29.422,29.422,0,0,1-1.947,2.71"/><path class="b" d="M862.2,229.5a5.181,5.181,0,0,0,5,5.429,6.187,6.187,0,0,0,2.091-.376,6.544,6.544,0,0,0,3.434-3.509l4.864,2.512a28.331,28.331,0,0,1-1.845,2.461,12.153,12.153,0,0,1-9.045,3.845,13.568,13.568,0,0,1-3.941-.587c-4.864-1.5-7.125-5.759-7.125-10.69a13.1,13.1,0,0,1,2.808-8.528c1.339-1.492,3.633-3.451,8.418-3.451,1.469,0,5.827.159,8.555,3.958,2.46,3.384,2.381,7.9,2.426,8.936Zm6.59-7.887a4.263,4.263,0,0,0-1.983-.427,4.407,4.407,0,0,0-4.055,2.636,7.787,7.787,0,0,0-.5,1.669h8.924a4.349,4.349,0,0,0-2.385-3.878"/><path class="b" d="M893.007,239.857v-12.32a10.89,10.89,0,0,0-.262-3.127,2.842,2.842,0,0,0-2.916-1.754,3.482,3.482,0,0,0-2.186.667c-1.094.831-1.209,2.175-1.209,4.754v11.78h-6.443V218.1h6.521v1.879a9.183,9.183,0,0,1,1-.963,8.831,8.831,0,0,1,5.155-1.5,8.534,8.534,0,0,1,3.9.882c2.7,1.413,2.9,3.879,2.9,6.556v14.9Z"/><path class="b" d="M910.7,222.374v9.757a3.793,3.793,0,0,0,.176,1.759,1.744,1.744,0,0,0,1.5.713c.752,0,1.5-.047,2.261-.047v4.962a18.377,18.377,0,0,1-3.383.341c-.478,0-.934,0-1.356-.033a6.112,6.112,0,0,1-3.975-1.339c-1.686-1.469-1.59-3.674-1.59-5.679V222.322h-3.179V218.4h3.183v-6.812H910.7v6.858h4.272v3.93Z"/><path class="b" d="M921.776,229.5a5.556,5.556,0,0,0,.074,1.294,4.792,4.792,0,0,0,4.91,4.135,6.147,6.147,0,0,0,2.084-.376c2.176-.746,3.139-2.963,3.452-3.509l4.853,2.512a29.774,29.774,0,0,1-1.841,2.461,12.182,12.182,0,0,1-9.061,3.845,13.562,13.562,0,0,1-3.93-.587c-4.864-1.5-7.131-5.759-7.131-10.69A13.111,13.111,0,0,1,918,220.053c1.333-1.492,3.656-3.451,8.424-3.451,1.458,0,5.821.159,8.549,3.958,2.471,3.384,2.38,7.9,2.426,8.936Zm6.573-7.887a4.2,4.2,0,0,0-1.977-.427,4.409,4.409,0,0,0-4.055,2.636,7.215,7.215,0,0,0-.507,1.669h8.92a4.31,4.31,0,0,0-2.381-3.878"/><path class="b" d="M949.873,223.824a11.776,11.776,0,0,0-2.022.455c-1.726.586-2.017,1.669-2.017,3.3v12.274h-6.419v-21.8h6.248v2.261a8.4,8.4,0,0,1,2.558-1.629,11.972,11.972,0,0,1,3.77-.872v5.673Z"/><path class="f" d="M1005.491,229.6c-2.073,6.283-5.855,10.259-13.156,10.259-6.585,0-12.064-7.371-10.686-14.565,1.219-6.35,5.89-12.444,13.442-12.444,7.092,0,11.311,5.855,11.334,11.676h-4.967c0-1.988-1.343-7.251-7.324-6.608l-3.462,16.233c2.5,1.139,6.743.939,9.67-4.556Z"/><path class="f" d="M969.251,239.857h-12.8l9.865-14.683Z"/><path class="f" d="M973.1,239.857h9.728l-6.082-30.232-7.49,11.232Z"/><path class="f" d="M1004.04,239.857h18.151l1.094-4.875h-9.194l1.088-4.88h9.027l1.025-4.881h-9.021l1.144-5.321h8.937l1.094-4.875h-18.036Z"/><path class="b" d="M832.063,158.574h7.928V161.9h-7.923v6.428h-3.657v-16.6h12.643v3.321h-8.99Z"/><path class="b" d="M855.049,163.22H846.2a3.106,3.106,0,0,0,1.067,1.85,3.182,3.182,0,0,0,2.04.641,3.982,3.982,0,0,0,1.613-.309,5.445,5.445,0,0,0,1.471-1l2.064,1.827a6.334,6.334,0,0,1-5.2,2.372,6.92,6.92,0,0,1-3.4-.831,6.083,6.083,0,0,1-2.372-2.324,6.686,6.686,0,0,1-.866-3.416v-.047a6.971,6.971,0,0,1,.806-3.321,6.225,6.225,0,0,1,2.242-2.408,6.022,6.022,0,0,1,3.238-.89,5.94,5.94,0,0,1,3.428.949,5.821,5.821,0,0,1,2.075,2.514,8.438,8.438,0,0,1,.688,3.44v.048c0,.158-.016.459-.047.9m-4.329-4.222a2.4,2.4,0,0,0-1.815-.735,2.459,2.459,0,0,0-1.814.723,3.555,3.555,0,0,0-.937,1.98h5.433a3.431,3.431,0,0,0-.866-1.968"/><path class="b" d="M862.391,160.267a4.9,4.9,0,0,0-1.008,3.356v4.7h-3.6V155.6h3.6v2.562a5.1,5.1,0,0,1,1.566-2.135,3.708,3.708,0,0,1,2.491-.663v3.771h-.19a3.641,3.641,0,0,0-2.859,1.127"/><path class="b" d="M872.306,160.267a4.9,4.9,0,0,0-1.008,3.356v4.7h-3.607V155.6H871.3v2.562a5.1,5.1,0,0,1,1.566-2.135,3.711,3.711,0,0,1,2.49-.663v3.771h-.19a3.639,3.639,0,0,0-2.858,1.127"/><path class="b" d="M889.065,163.22h-8.848a3.106,3.106,0,0,0,1.067,1.85,3.182,3.182,0,0,0,2.04.641,3.982,3.982,0,0,0,1.613-.309,5.445,5.445,0,0,0,1.471-1l2.064,1.827a6.334,6.334,0,0,1-5.2,2.372,6.92,6.92,0,0,1-3.4-.831,6.083,6.083,0,0,1-2.372-2.324,6.686,6.686,0,0,1-.866-3.416v-.047a6.972,6.972,0,0,1,.806-3.321,6.2,6.2,0,0,1,2.242-2.408,6.022,6.022,0,0,1,3.238-.89,5.942,5.942,0,0,1,3.428.949,5.821,5.821,0,0,1,2.075,2.514,8.439,8.439,0,0,1,.688,3.44v.048c0,.158-.016.459-.047.9m-4.329-4.222a2.4,2.4,0,0,0-1.815-.735,2.467,2.467,0,0,0-1.815.723,3.56,3.56,0,0,0-.936,1.98h5.432a3.431,3.431,0,0,0-.866-1.968"/><path class="b" d="M896.086,168.534a3.957,3.957,0,0,1-2.74-.866,3.833,3.833,0,0,1-.96-2.953v-6.026h-1.518V155.6h1.518v-3.249h3.6V155.6h2.989v3.084h-2.984v5.432a1.327,1.327,0,0,0,.285.926,1.14,1.14,0,0,0,.878.308,3.661,3.661,0,0,0,1.779-.451V167.8a5.444,5.444,0,0,1-2.847.736"/><path class="b" d="M913.091,163.22h-8.845a3.1,3.1,0,0,0,1.068,1.85,3.177,3.177,0,0,0,2.039.641,3.981,3.981,0,0,0,1.613-.309,5.488,5.488,0,0,0,1.472-1l2.063,1.827a6.334,6.334,0,0,1-5.195,2.372,6.921,6.921,0,0,1-3.4-.831,6.083,6.083,0,0,1-2.372-2.324,6.7,6.7,0,0,1-.866-3.416v-.047a6.972,6.972,0,0,1,.807-3.321,6.2,6.2,0,0,1,2.241-2.408,6.022,6.022,0,0,1,3.238-.89,5.94,5.94,0,0,1,3.428.949,5.824,5.824,0,0,1,2.076,2.514,8.456,8.456,0,0,1,.687,3.44v.048c0,.158-.015.459-.047.9m-4.329-4.222a2.392,2.392,0,0,0-1.815-.735,2.459,2.459,0,0,0-1.814.723,3.555,3.555,0,0,0-.937,1.98h5.428a3.431,3.431,0,0,0-.866-1.968"/><path class="b" d="M920.436,160.267a4.9,4.9,0,0,0-1.008,3.356v4.7h-3.606V155.6h3.606v2.562a5.087,5.087,0,0,1,1.565-2.135,3.708,3.708,0,0,1,2.491-.663v3.771h-.193a3.639,3.639,0,0,0-2.858,1.127"/><path class="b" d="M925.9,155.606h3.606V168.32H925.9Zm2.918-5.6,3.108,1.352-3.038,2.848h-2.75Z"/><path class="b" d="M940.35,166.945a4.914,4.914,0,0,1-3.843,1.613,4.732,4.732,0,0,1-3.116-1.032,3.513,3.513,0,0,1-1.245-2.859v-.048a3.53,3.53,0,0,1,1.388-3.036,6.184,6.184,0,0,1,3.736-1.019,9.518,9.518,0,0,1,3.107.521v-.211a2.163,2.163,0,0,0-.687-1.732,3.055,3.055,0,0,0-2.04-.593,8.675,8.675,0,0,0-1.768.166,12.044,12.044,0,0,0-1.743.522l-.9-2.752a11.863,11.863,0,0,1,2.29-.77,12.3,12.3,0,0,1,2.644-.25,5.772,5.772,0,0,1,4.282,1.412,5.563,5.563,0,0,1,1.388,4.068v7.377H940.35Zm-2.23-4.223a3.22,3.22,0,0,0-1.827.451,1.477,1.477,0,0,0-.664,1.3v.048a1.339,1.339,0,0,0,.546,1.126,2.285,2.285,0,0,0,1.422.416,3.167,3.167,0,0,0,2.042-.629,1.965,1.965,0,0,0,.782-1.6v-.641a5.39,5.39,0,0,0-2.3-.474"/></g></svg>