<svg xmlns="http://www.w3.org/2000/svg" width="360.632" height="97.755" viewBox="0 0 360.632 97.755"><defs><style>.a{fill:#5ab683;}.b{fill:#014d37;}.c{fill:none;stroke:#00a992;stroke-miterlimit:10;stroke-width:1.906px;}</style></defs><g transform="translate(-519.69 -317.415)"><g transform="translate(598.088 397.246)"><g transform="translate(0)"><path class="a" d="M721.481,534.486v1.607a2.318,2.318,0,0,0-.65-.57,1.486,1.486,0,0,0-.729-.182,1.631,1.631,0,0,0-1.561,1.128,9.635,9.635,0,0,0-.49,3.589,7.486,7.486,0,0,0,.5,3.111,1.605,1.605,0,0,0,1.5,1.049,1.507,1.507,0,0,0,.786-.211,1.857,1.857,0,0,0,.615-.633V545a3.017,3.017,0,0,1-.786.387,2.843,2.843,0,0,1-.855.126,2.588,2.588,0,0,1-2.319-1.464,8.134,8.134,0,0,1-.849-4.062,9.016,9.016,0,0,1,.866-4.439,2.81,2.81,0,0,1,2.587-1.487,2.469,2.469,0,0,1,.729.109A2.33,2.33,0,0,1,721.481,534.486Z" transform="translate(-716.649 -527.717)"/><path class="a" d="M748.459,545.379v-1.026a1.912,1.912,0,0,1-.769.912,2.226,2.226,0,0,1-1.191.319,2.159,2.159,0,0,1-2.079-1.408,12.1,12.1,0,0,1-.644-4.655,9.789,9.789,0,0,1,.656-4.148,2.171,2.171,0,0,1,2.068-1.311,2.136,2.136,0,0,1,1.128.3,2.42,2.42,0,0,1,.832.889V534.2h1.356v11.178Zm-3.282-5.526a11.424,11.424,0,0,0,.382,3.607,1.343,1.343,0,0,0,2.6-.034,11.446,11.446,0,0,0,.382-3.572,11.622,11.622,0,0,0-.382-3.6,1.338,1.338,0,0,0-2.6-.028A11.6,11.6,0,0,0,745.177,539.853Z" transform="translate(-733.057 -527.717)"/><path class="a" d="M777.622,534.2H779v1.026a2.408,2.408,0,0,1,.912-.872,2.584,2.584,0,0,1,1.23-.291,1.9,1.9,0,0,1,1.727.838,5.214,5.214,0,0,1,.541,2.729v7.748h-1.379v-7.954a3.677,3.677,0,0,0-.308-1.8,1.164,1.164,0,0,0-1.071-.49,1.349,1.349,0,0,0-1.23.712,4.168,4.168,0,0,0-.422,2.091v7.441h-1.379Z" transform="translate(-753.531 -527.717)"/><path class="a" d="M810.459,534.2h1.379v1.026a2.406,2.406,0,0,1,.912-.872,2.584,2.584,0,0,1,1.23-.291,1.9,1.9,0,0,1,1.727.838,5.214,5.214,0,0,1,.541,2.729v7.748h-1.378v-7.954a3.676,3.676,0,0,0-.308-1.8,1.164,1.164,0,0,0-1.071-.49,1.348,1.348,0,0,0-1.23.712,4.167,4.167,0,0,0-.422,2.091v7.441h-1.379Z" transform="translate(-773.394 -527.717)"/><path class="a" d="M846.739,545.379v-1.026a1.916,1.916,0,0,1-.769.912,2.227,2.227,0,0,1-1.191.319,2.159,2.159,0,0,1-2.079-1.408,12.108,12.108,0,0,1-.644-4.655,9.792,9.792,0,0,1,.655-4.148,2.17,2.17,0,0,1,2.068-1.311,2.137,2.137,0,0,1,1.128.3,2.42,2.42,0,0,1,.832.889V534.2H848.1v11.178Zm-3.282-5.526a11.427,11.427,0,0,0,.382,3.607,1.343,1.343,0,0,0,2.6-.034,11.479,11.479,0,0,0,.381-3.572,11.656,11.656,0,0,0-.381-3.6,1.338,1.338,0,0,0-2.6-.028A11.606,11.606,0,0,0,843.458,539.853Z" transform="translate(-792.506 -527.717)"/><path class="a" d="M875.9,518h1.379v7.487a2.09,2.09,0,0,1,.792-.849,2.223,2.223,0,0,1,1.145-.291,2.164,2.164,0,0,1,2.074,1.35,14.951,14.951,0,0,1-.017,8.774,2.273,2.273,0,0,1-3.259,1.077,2.143,2.143,0,0,1-.792-.912v1.026H875.9Zm2.94,16.728a1.346,1.346,0,0,0,1.316-.992,11.443,11.443,0,0,0,.382-3.6,11.617,11.617,0,0,0-.382-3.624,1.338,1.338,0,0,0-2.6.028,11.64,11.64,0,0,0-.382,3.6,11.462,11.462,0,0,0,.382,3.572A1.332,1.332,0,0,0,878.842,534.729Z" transform="translate(-812.979 -518.001)"/><path class="a" d="M908.639,523.192a1.025,1.025,0,0,1,.747.3,1.011,1.011,0,0,1-.006,1.447,1.009,1.009,0,0,1-.741.308.975.975,0,0,1-.718-.313,1.016,1.016,0,0,1-.308-.735.957.957,0,0,1,.3-.712A1,1,0,0,1,908.639,523.192Zm-.7,4.433h1.4V538.8h-1.4Z" transform="translate(-832.161 -521.141)"/><path class="a" d="M928.89,543.111a3.871,3.871,0,0,0,1.037.877,2.215,2.215,0,0,0,1.083.3,1.718,1.718,0,0,0,1.259-.49,1.7,1.7,0,0,0,.5-1.265q0-.946-1.709-2.4a2.018,2.018,0,0,1-.16-.137,8.529,8.529,0,0,1-1.755-1.829,2.876,2.876,0,0,1-.4-1.487,2.639,2.639,0,0,1,.775-1.954,2.7,2.7,0,0,1,1.983-.769,3.629,3.629,0,0,1,1.008.143,3.908,3.908,0,0,1,.974.439v1.424a3.167,3.167,0,0,0-.9-.627,2.284,2.284,0,0,0-.946-.217,1.575,1.575,0,0,0-1.128.433,1.432,1.432,0,0,0-.455,1.083q0,.912,1.583,2.233a1.116,1.116,0,0,1,.091.079,9.287,9.287,0,0,1,1.926,1.966,3.062,3.062,0,0,1,.433,1.6,3.024,3.024,0,0,1-.843,2.2,2.864,2.864,0,0,1-2.142.866,3.315,3.315,0,0,1-1.179-.216,3.451,3.451,0,0,1-1.031-.6Z" transform="translate(-844.941 -527.648)"/><path class="a" d="M981.265,534.2h1.379v1.026a2.4,2.4,0,0,1,.912-.872,2.581,2.581,0,0,1,1.23-.291,2.114,2.114,0,0,1,1.231.354,2.4,2.4,0,0,1,.82,1.071,2.906,2.906,0,0,1,1.009-1.065,2.568,2.568,0,0,1,1.35-.36,1.9,1.9,0,0,1,1.732.838,5.254,5.254,0,0,1,.536,2.729v7.748h-1.379v-7.954a3.681,3.681,0,0,0-.307-1.8,1.165,1.165,0,0,0-1.071-.49,1.349,1.349,0,0,0-1.231.712,4.171,4.171,0,0,0-.421,2.091v7.441h-1.379v-7.954a3.674,3.674,0,0,0-.308-1.8,1.163,1.163,0,0,0-1.071-.49,1.349,1.349,0,0,0-1.231.712,4.171,4.171,0,0,0-.422,2.091v7.441h-1.379Z" transform="translate(-876.712 -527.717)"/><path class="a" d="M1030.013,540.022h-4.877v.376a6.945,6.945,0,0,0,.479,2.878,1.47,1.47,0,0,0,1.322,1.02,1.3,1.3,0,0,0,1.133-.735,4.092,4.092,0,0,0,.473-1.989h1.333a4.994,4.994,0,0,1-.877,2.86,2.617,2.617,0,0,1-4.427-.381,11.852,11.852,0,0,1,.063-8.621,2.589,2.589,0,0,1,2.347-1.538,2.435,2.435,0,0,1,2.267,1.452,9.511,9.511,0,0,1,.764,4.3Zm-1.31-1.14a7.057,7.057,0,0,0-.45-2.758q-.439-.98-1.225-.98a1.489,1.489,0,0,0-1.327.969,6.79,6.79,0,0,0-.564,2.769Z" transform="translate(-902.436 -527.613)"/><path class="a" d="M1059.5,535.663v-1.026a1.907,1.907,0,0,1-.747.906,2.269,2.269,0,0,1-3.27-1.082,12.1,12.1,0,0,1-.644-4.655,9.791,9.791,0,0,1,.655-4.148,2.171,2.171,0,0,1,2.068-1.311,2.225,2.225,0,0,1,1.145.291,2.1,2.1,0,0,1,.792.849V518h1.379v17.662Zm-3.259-5.526a11.415,11.415,0,0,0,.382,3.607,1.343,1.343,0,0,0,2.6-.035,11.476,11.476,0,0,0,.381-3.572,11.655,11.655,0,0,0-.381-3.6,1.338,1.338,0,0,0-2.6-.028A11.6,11.6,0,0,0,1056.242,530.136Z" transform="translate(-921.217 -518.001)"/><path class="a" d="M1088.819,523.192a1.023,1.023,0,0,1,.746.3,1.012,1.012,0,0,1-.006,1.447,1.008,1.008,0,0,1-.74.308.976.976,0,0,1-.719-.313,1.017,1.017,0,0,1-.307-.735.958.958,0,0,1,.3-.712A1,1,0,0,1,1088.819,523.192Zm-.7,4.433h1.4V538.8h-1.4Z" transform="translate(-941.149 -521.141)"/><path class="a" d="M1114.646,534.486v1.607a2.319,2.319,0,0,0-.65-.57,1.485,1.485,0,0,0-.729-.182,1.631,1.631,0,0,0-1.561,1.128,9.636,9.636,0,0,0-.49,3.589,7.486,7.486,0,0,0,.5,3.111,1.606,1.606,0,0,0,1.5,1.049,1.509,1.509,0,0,0,.786-.211,1.862,1.862,0,0,0,.615-.633V545a3.015,3.015,0,0,1-.786.387,2.841,2.841,0,0,1-.855.126,2.588,2.588,0,0,1-2.319-1.464,8.131,8.131,0,0,1-.849-4.062,9.012,9.012,0,0,1,.866-4.439,2.81,2.81,0,0,1,2.587-1.487,2.47,2.47,0,0,1,.729.109A2.332,2.332,0,0,1,1114.646,534.486Z" transform="translate(-954.469 -527.717)"/><path class="a" d="M1138.313,523.192a1.024,1.024,0,0,1,.746.3,1.01,1.01,0,0,1-.005,1.447,1.01,1.01,0,0,1-.741.308.975.975,0,0,1-.718-.313,1.016,1.016,0,0,1-.308-.735.958.958,0,0,1,.3-.712A1,1,0,0,1,1138.313,523.192Zm-.695,4.433h1.4V538.8h-1.4Z" transform="translate(-971.087 -521.141)"/><path class="a" d="M1160.262,534.2h1.379v1.026a2.4,2.4,0,0,1,.912-.872,2.582,2.582,0,0,1,1.23-.291,1.9,1.9,0,0,1,1.726.838,5.21,5.21,0,0,1,.541,2.729v7.748h-1.379v-7.954a3.676,3.676,0,0,0-.307-1.8,1.164,1.164,0,0,0-1.071-.49,1.349,1.349,0,0,0-1.231.712,4.17,4.17,0,0,0-.421,2.091v7.441h-1.379Z" transform="translate(-984.984 -527.717)"/><path class="a" d="M1196.541,545.379v-1.026a1.913,1.913,0,0,1-.769.912,2.227,2.227,0,0,1-1.191.319,2.159,2.159,0,0,1-2.08-1.408,12.1,12.1,0,0,1-.644-4.655,9.787,9.787,0,0,1,.655-4.148,2.171,2.171,0,0,1,2.068-1.311,2.135,2.135,0,0,1,1.128.3,2.413,2.413,0,0,1,.832.889V534.2h1.356v11.178Zm-3.281-5.526a11.43,11.43,0,0,0,.381,3.607,1.343,1.343,0,0,0,2.6-.034,11.473,11.473,0,0,0,.382-3.572,11.649,11.649,0,0,0-.382-3.6,1.339,1.339,0,0,0-2.6-.028A11.61,11.61,0,0,0,1193.26,539.853Z" transform="translate(-1004.097 -527.717)"/><path class="a" d="M1225.646,518h1.4v17.662h-1.4Z" transform="translate(-1024.534 -518.001)"/></g></g><g transform="translate(551.53 335.297)"><path class="b" d="M598.816,416.085V361.213h10.243c2.286,7.743,9.13,34.829,9.737,37.736h.1c-.409-6.748-.429-14.47-.429-23.486V361.213h8.165v54.872h-9.855c-1.809-6.555-9.443-36.65-10.015-38.955h-.086c.419,6.644.385,14.082.385,23.949v15.006Z" transform="translate(-598.816 -361.213)"/><path class="b" d="M701.962,361.213v54.872h-8.845V361.213Z" transform="translate(-655.857 -361.213)"/><path class="b" d="M748.459,391.548v24.537h-8.845V361.213h12.251c8.726,0,13.878,3.345,13.878,13.222v2.089c0,8.432-3.617,10.576-5.838,11.447,3.345,1.5,5.257,3.808,5.257,11.254,0,4.62-.086,13.534.526,16.859h-8.543c-.762-3.315-.6-12.328-.6-16.314,0-6.689-.9-8.223-6.033-8.223Zm0-6.987h2.028c4.68,0,6.4-1.688,6.4-7.655v-1.882c0-4.241-.917-6.824-5.93-6.824h-2.5Z" transform="translate(-683.983 -361.213)"/><path class="b" d="M826.746,361.213H839.5c9.108,0,13.751,4.3,13.751,14.008v3.233c0,9.056-3.38,15.072-14.245,15.072h-3.417v22.559h-8.845Zm8.845,25.4h2.424c5.514,0,6.459-3.082,6.459-8.437v-2.7c0-3.988-.759-7.277-5.672-7.277h-3.21Z" transform="translate(-736.688 -361.213)"/><path class="b" d="M911.27,361.213h8.845v21.662h9.521V361.213h8.845v54.872h-8.845V390.657h-9.521v25.428H911.27Z" transform="translate(-787.815 -361.213)"/><path class="b" d="M1006.748,401.406l-2.008,14.679h-9l9.238-54.872h12.5l9.59,54.872h-9.243l-2.255-14.679Zm7.777-7.783c-1.311-9.32-2.565-18.164-3.221-24.369h-.322c-.247,4.522-1.971,16.271-3.115,24.369Z" transform="translate(-838.912 -361.213)"/><path class="b" d="M1098.942,391.548v24.537H1090.1V361.213h12.251c8.726,0,13.878,3.345,13.878,13.222v2.089c0,8.432-3.617,10.576-5.838,11.447,3.344,1.5,5.257,3.808,5.257,11.254,0,4.62-.086,13.534.526,16.859h-8.542c-.763-3.315-.6-12.328-.6-16.314,0-6.689-.9-8.223-6.033-8.223Zm0-6.987h2.028c4.681,0,6.4-1.688,6.4-7.655v-1.882c0-4.241-.917-6.824-5.93-6.824h-2.5Z" transform="translate(-895.986 -361.213)"/><path class="b" d="M1205.162,395.673c0-9.325.107-20.937.279-27.226h-.086c-1.318,9.522-4.491,31.749-6.973,47.638h-8.346c-1.851-14.253-5.053-37.676-6.362-47.711h-.172c.172,6.4.439,18.811.439,28.247v19.463h-8.013V361.213H1189.1c2.231,13.946,4.531,29.58,5.3,37.269h.086c.934-7.785,4.041-24.111,6.338-37.269h12.733v54.872h-8.4Z" transform="translate(-947.903 -361.213)"/><path class="b" d="M1296.61,401.406l-2.009,14.679h-9l9.237-54.872h12.5l9.592,54.872h-9.244l-2.255-14.679Zm7.777-7.783c-1.311-9.32-2.565-18.164-3.22-24.369h-.323c-.247,4.522-1.971,16.271-3.114,24.369Z" transform="translate(-1014.245 -361.213)"/></g><path class="c" d="M590.926,408.72H520.643V318.368H879.369V408.72H809.578" transform="translate(0 0)"/></g></svg>