<svg xmlns="http://www.w3.org/2000/svg" width="295" height="69.396" viewBox="0 0 295 69.396"><defs><style>.a{fill:#32190c;}.b{fill:#d38146;}.c{fill:#733e0d;opacity:0.48;}.d{fill:#b06834;}.e{fill:#a85d25;}.f{fill:#fff;}.g{fill:#e8eaec;}</style></defs><g transform="translate(-779.645 -602.296)"><g transform="translate(883.756 610.971)"><path class="a" d="M1152.484,673.856c1.958,1.769,2.667,4.758,2.667,8.5,0,6.35-3.77,7.711-5.909,7.711a5.206,5.206,0,0,1-5.52-5.184V664.829h-10.907v19.212c0,9.913,7.6,15.1,16.546,15.1,9.719,0,17.214-5.961,17.214-17.041,0-7-1.275-13.468-9.244-16.837Z" transform="translate(-1132.815 -655.069)"/><path class="a" d="M1269.934,692.771c0-.036,0-.062.005-.093a18.376,18.376,0,0,1-7.41,1.958c-3.434,0-5.572-1.226-6.026-4.469H1277.5a30.9,30.9,0,0,0,.259-3.63c0-9.33-6.8-15.875-16-15.875-10.432,0-17.235,6.868-17.235,16.263,0,9.913,6.8,16.425,17.559,16.425a28.182,28.182,0,0,0,11.964-2.788A10.082,10.082,0,0,1,1269.934,692.771Zm-7.988-13.819c4.73,0,5.119,4.73,5.119,4.73h-10.5S1257.346,678.951,1261.946,678.951Z" transform="translate(-1211.588 -659.182)"/><g transform="translate(64.475 11.349)"><path class="a" d="M1354.333,684.841l-.078.041.078.116Z" transform="translate(-1353.451 -680.531)"/><path class="a" d="M1382.566,691.017v-9.2c0-7.646-5.605-11.6-14.806-11.6a30.509,30.509,0,0,0-13.493,3.316,15.341,15.341,0,0,1,4.819,7.054,19.456,19.456,0,0,1,7.211-1.752c2.462,0,4.408,1.1,4.408,3.823a33.186,33.186,0,0,0-4.534-.324c-7.127,0-14.643,2.073-14.643,10.237,0,5.766,4.989,10.431,12.7,10.431a15.622,15.622,0,0,0,9.4-3.11,8.721,8.721,0,0,0,6.046,2.609c3.711,0,5.55-2.212,6.434-2.868v-7.412C1384.334,693.664,1382.566,693.3,1382.566,691.017Zm-12.086,1.36a9.576,9.576,0,0,1-5.167,1.75c-1.879,0-3.1-.972-3.1-2.721s1.7-2.851,4.3-2.851a19.772,19.772,0,0,1,3.972.389Z" transform="translate(-1351.528 -670.219)"/><path class="a" d="M1370.052,708.533l.077.115.212-.115Z" transform="translate(-1364.591 -697.238)"/></g><path class="a" d="M1466.51,631.722H1478.3v12.256a19.431,19.431,0,0,1,4.924-.778c9.525,0,16.133,6.674,16.133,16.2,0,9.978-7.062,16.393-17.494,16.393a35.881,35.881,0,0,1-15.356-3.3ZM1482,652.206a5.36,5.36,0,0,0-3.693,1.166v12.505a6.554,6.554,0,0,0,3.693.907c3.5,0,5.507-2.527,5.507-7.387C1487.5,654.863,1485.494,652.206,1482,652.206Z" transform="translate(-1368.14 -631.722)"/><path class="a" d="M1592.869,703c-10.432,0-17.17-6.479-17.17-16.457,0-9.46,6.738-16.328,17.17-16.328,10.3,0,17.105,6.674,17.105,16.328C1609.974,696.459,1603.236,703,1592.869,703Zm0-23.584c-3.11,0-5.313,2.592-5.313,7.127,0,4.665,2.074,7.257,5.313,7.257s5.248-2.592,5.248-7.257C1598.117,682.011,1595.979,679.419,1592.869,679.419Z" transform="translate(-1445.141 -658.87)"/><path class="a" d="M1712.193,681.219a12.488,12.488,0,0,0-5.184-1.555c-4.017,0-5.637,3.175-5.637,6.933v16.069H1689.58v-31.49h10.95l.324,2.074a13.87,13.87,0,0,1,7.322-2.592,11.939,11.939,0,0,1,8.164,2.98Z" transform="translate(-1525.451 -659.18)"/></g><g transform="translate(779.645 602.296)"><path class="a" d="M877.542,611.777c.007-.541.012-1.068.01-1.72a1.555,1.555,0,0,1,1.208-1.516c2.515-.159,5.047-.368,7.655-.368s5.14.045,7.655.2c.636.041,1.209,1.018,1.207,1.707,0,.643,0,1.161.009,1.691,1.744.042,3.567.094,5.432.158v-.893c0-5.15-1.02-7.774-6.935-8.387a73.855,73.855,0,0,0-7.543-.356,61.715,61.715,0,0,0-6.938.356c-5.915.614-6.5,3.238-6.5,8.387v.87Q875.165,611.831,877.542,611.777Z" transform="translate(-845.338 -602.296)"/><g transform="translate(0 9.363)"><path class="b" d="M860.646,642.842a9.251,9.251,0,0,0-7.988-7.565c-10.21-.8-23.342-1.205-31.274-1.219-10.787.014-21.726.417-31.937,1.219-3.864.318-7.737,3.7-8.319,7.565a140.007,140.007,0,0,0-1.475,20.939,130.238,130.238,0,0,0,1.475,21.233,9.935,9.935,0,0,0,8.319,7.858c10.21.8,21.149,1.205,31.937,1.219,7.932-.014,21.064-.417,31.274-1.219,3.864-.318,7.406-3.989,7.988-7.858a131.454,131.454,0,0,0,1.144-21.233A138.192,138.192,0,0,0,860.646,642.842Z" transform="translate(-779.645 -634.058)"/><g transform="translate(0.569 0.819)"><g transform="translate(66.246)"><path class="c" d="M1021.742,652.418c-.216-2.384-.478-4.77-.821-7.16a12.693,12.693,0,0,0-6.231-7.076,20.994,20.994,0,0,0-3.944-.958c-.251-.032-.5-.061-.752-.092q-1.344-.1-2.687-.185a2.291,2.291,0,0,1-.326,3.143c.383,2.326,1.836,3.532,4.229,3.953a3.263,3.263,0,0,1,3.1,3.31C1014.311,650.573,1016.894,652.845,1021.742,652.418Z" transform="translate(-1006.779 -636.915)"/><path class="d" d="M1020.4,644.9a9.638,9.638,0,0,0-8.247-7.659c-1.937-.152-3.87-.276-5.8-.4a15.52,15.52,0,0,0-.019,2.281,4.719,4.719,0,0,0,4.4,4.256c2.411.247,3.718,1.412,3.837,3.937a4.6,4.6,0,0,0,4.419,4.193c.72.024,1.6.01,2.2-.026C1020.968,649.286,1020.721,647.092,1020.4,644.9Z" transform="translate(-1006.296 -636.837)"/><g transform="translate(0.079 0.052)"><path class="e" d="M1009.038,637.581l.8-.006,0-.507-.8-.055Z" transform="translate(-1008.305 -637.013)"/><path class="e" d="M1007.78,646.017l.7-.487a3.082,3.082,0,0,1-.363-1.235l-1.015.042c.011.137-.163.246-.163.378h0s.219,0,.22.006l.209.3.031.31h-.46v-.583h0v.582h-.272s.36-.284.36-.282l.274.132c0,.006.241.15.241.15h.018l-.084-.27-.042.132s-.02.138-.02.138h-.061s-.413-.535-.413-.534h0v.533h.5s-.018-.257-.018-.255l-.009-.129s0-.062,0-.061l0-.031s-.233-.014-.233-.012l-.23-.014v0l.221.247s.2.251.2.251h.014s.018-.241.019-.239l.009-.122s0-.058.005-.056l0-.029,0,.221.079.224h-.547v-.464s.236,0,.236,0l-.119,0s-.118,0-.118,0v0s.238,0,.238.005l-.12,0s-.118,0-.118,0v.019s0,0,0,.005v.031s.246,0,.246,0,.123,0,.124,0l-.186,0s-.184,0-.184,0v0l.248,0,.124,0,.063,0,.032,0,.016,0-.242,0s-.241,0-.241.006v0l.251,0s.126,0,.126,0,.063,0,.064,0l.032,0,.017,0-.245,0-.244,0v.006h0s.257.009.258.013l.128,0s.064,0,.065,0l.032,0-.242,0h-.241v.293h.5s.014,0,.014,0l.007,0h.006l-.262-.128-.261-.129v0s-.2.121-.2.122-.134.133-.134.133h-.032s.451-.116.451-.115l.226-.058s.113-.027.113-.026l.057.1.029.1h-.508v-.216s.367.216.367.216h.089s.044-.1.045-.1l.022-.049s.011.071.012.073l-.024.074h-.511v-.186s.275,0,.275,0,.138,0,.138,0,.072.009.073.014h.035s.018,0,.018,0l-.27,0-.269,0v0l.28,0,.179.37.144.372h.018s-.027-.359-.025-.354l-.014-.183s-.007-.09-.006-.088l-.289-.044s-.286-.044-.286-.042v.007s.381.116.381.116h-.1s-.285-.106-.285-.1h0s.289,0,.29,0h.145s.073,0,.073,0h-.255s-.253,0-.253,0v0l.292,0,.146,0s.076.008.077.012h-.259l-.257,0v0l.3,0,.149,0,.075,0-.261,0-.259,0v0s.3.008.3.011l.15,0,.076,0-.265,0-.263,0v0l.3,0,.152,0-.229,0-.227,0v.009s.308,0,.308,0,.154,0,.154,0,.078,0,.078,0a.254.254,0,0,0,.039,0,.2.2,0,0,0,.021,0l.011,0,.006,0h0l0,0,0,0,0,0v.021s-.318,0-.318,0-.317,0-.317,0h0v.006s.321,0,.322,0l.161,0,.082,0,.041,0,.021,0h.011s.006,0,.007,0l-.012-.046-.012-.042h0s.017,0,.017,0l.009,0h.005l0,.054s0,.029,0,.031l-.329.015s-.329.016-.329.017v.072s.663.4.663.4h.076s-.739-.459-.739-.455h0s.336,0,.337,0h.168s.085,0,.085,0l.042,0s.022,0,.023,0l-.011.211c0,.005-.15.227-.15.227h-.493v-.416h0v-.024s.69.439.69.439h-.037s-.334-.283-.334-.277l-.319-.109v.005l.319.11s.344.271.344.271h.021A.161.161,0,0,1,1007.78,646.017Z" transform="translate(-1006.565 -642.148)"/><path class="e" d="M1026.335,654.725a6.32,6.32,0,0,0-1.715-.618l-.167.781a5.507,5.507,0,0,1,1.5.538Z" transform="translate(-1019.18 -649.068)"/><path class="e" d="M1011.8,651.523h1.139l-1.139.3v.063l.529.034.263-.113s.134-.2.134-.2l.133-.087H1011.8v.338l.545.056.271.027.14.016.068-.133s.034-.218.036-.218l.037-.087h.026l-.563.087-.559.237v.134s-.01.011-.008.012a.019.019,0,0,1,.008.016v.007h0l.588,0-.3-.043-.292-.116V651.7h0v.164l.607.091-.319-.016c.011.006-.287-.009-.287-.009v0l.626.066-.315.032-.311.018v-.064c0,.006,1.3-.461,1.311-.461h-.012s0,.281,0,.282a8.359,8.359,0,0,0,.819.335l.241.037v-.653h0v.656s-.217.085-.215.086l-.109.042.159.022.165.011v.01s-.01,0-.008,0,.008,0,.008.006v-.3l-.395-.54h0s0,.42,0,.421v-.211s0-.21,0-.21h.008s.374.779.374.779v-.034s-.364-.745-.362-.745h.014l0,.427,0,.214,0,.107,0,.054a.153.153,0,0,1,0,.027s0,.014,0,.014l0-.422,0-.422h.028s0,.435,0,.435v-.218s0-.217,0-.217h-.007c.009,0,.293.876.293.878v.06s-.164-.938-.162-.938h-.045c.016,0,.008.449.024.453l.2-.552a3.268,3.268,0,0,1-1.168-.447l-.93.737c.058.043-.272.213-.272.213v0s.452-.214.454-.213h0c.01.007.47-.2.48-.2h-.072l-.862.387v.009l.515-.189.455-.206h-.97v.338s.5.032.511.036.249.014.25.015l-.383.006s-.378.005-.378.006v-.285l1.015-.115h0s-.855.622-.855.622l-.162-.211Z" transform="translate(-1010.248 -646.861)"/><path class="e" d="M1032.727,662.247l.946-.237a4.924,4.924,0,0,0-.776-1.672l-.58.908s.044.415.044.415h0s0-.408,0-.406l-.278-.114s-.276-.088-.276-.088v.608h.563s0-.4,0-.4v.2s0,.2,0,.2h.013s-.583-.706-.583-.7v-.039c0,.006.3-.008.3,0l.146.369s.129.377.129.377h.011l.007-.377,0-.187,0-.092,0,.325,0,.331h0l0,0v0h0l0,0,0,0h0l0-.363,0-.179,0-.089v-.043s0,.334,0,.335l0,.339h0l0-.353.011.175s-.044.178-.044.178h-.605v-.687h0v0h0v-.2h.525l.072.109-.3.053s-.3.055-.3.056h0v0h0s.339,0,.34,0h-.171s-.169,0-.169,0h0v.33s.59.32.59.32h.043l-.634-.566v.566h.724l-.295-.242s-.43-.29-.43-.288v-.04C1031.815,661.437,1032.594,661.817,1032.727,662.247Z" transform="translate(-1024.371 -653.463)"/><path class="e" d="M1043.779,679.654a3.126,3.126,0,0,1-1.143-.533l-.476.642a3.911,3.911,0,0,0,1.438.67Z" transform="translate(-1031.667 -666.708)"/><path class="e" d="M1052.939,680.548h.144c.142,0,.344.455.556.456-.027-.266-.044-.307-.073-.574-.189,0-.37.11-.513.108-.2,0-.417.064-.63.065l0,.374c.157,0,.314-.43.467-.43h.045Z" transform="translate(-1038.904 -667.631)"/><path class="e" d="M1034.815,672.057c0,.552.517,1.056.777,1.509l.857-.4c-.209-.363.063-.742.045-1.127l.385-.03v0l-1.431.04-.633,0Z" transform="translate(-1026.487 -661.693)"/></g></g><path class="c" d="M781.575,652.418c.216-2.384.478-4.77.821-7.16a12.694,12.694,0,0,1,6.231-7.076,20.994,20.994,0,0,1,3.944-.958c.251-.032.5-.061.751-.092q1.344-.1,2.687-.185a2.29,2.29,0,0,0,.326,3.143c-.384,2.326-1.837,3.532-4.23,3.953a3.262,3.262,0,0,0-3.1,3.31C789.005,650.573,786.423,652.845,781.575,652.418Z" transform="translate(-781.575 -636.915)"/><path class="d" d="M782.62,644.9a9.639,9.639,0,0,1,8.248-7.659c1.936-.152,3.87-.276,5.8-.4a15.562,15.562,0,0,1,.019,2.281,4.719,4.719,0,0,1-4.4,4.256c-2.411.247-3.718,1.412-3.836,3.937a4.6,4.6,0,0,1-4.419,4.193c-.72.024-1.6.01-2.2-.026C782.054,649.286,782.3,647.092,782.62,644.9Z" transform="translate(-781.763 -636.837)"/><g transform="translate(0.148 0.052)"><path class="e" d="M827.667,637.581l-.8-.006,0-.507.8-.055Z" transform="translate(-813.664 -637.013)"/><path class="e" d="M826.279,646.017l-.7-.487a3.087,3.087,0,0,0,.363-1.235l.425.042c-.011.137-.426.246-.426.378h0v.006h0s.656.613.656.613h-.656v-.583h0v.005h0s.365,0,.365.005l.187.276c0,.006.174.294.174.294h0s0-.272,0-.27v.132s0,.138,0,.138h-.034s-.692-.535-.692-.534h0v.533h.7s-.345-.257-.346-.255l-.351-.234v-.013s.358,0,.357,0l.078.246s.444.251.069.251h0l.1-.239.051-.121.024-.057.013.207.008.21h-.706v-.459s.353,0,.352,0l.176,0s.088,0,.087.005l.044,0s.021,0,.021,0l-.339,0-.341,0v0s.444,0,.068,0l.315,0,.157,0,.079,0s.039,0,.038.005l.019,0,.009,0s-.342,0-.342,0-.343,0-.343,0v0l.346,0,.172,0-.258,0-.26,0v0s.344,0,.343,0,.172,0,.171,0l-.257,0s-.258,0-.258,0v.014l.34,0-.169,0s-.171,0-.171.006v0l.338,0s.169,0,.169,0,.084,0,.083,0l.042,0,.02,0-.326,0-.326,0v.006h0s.333.009.332.013l.167,0s.083,0,.083,0l.041,0,.02,0,.01.146s.005.148,0,.148h-.514s.256,0,.256,0l.128,0h-.029s-.5-.243-.5-.238h0s.322,0,.322,0h.161s.08,0,.08,0h.04s.019,0,.019,0h-.31s-.312,0-.312,0h0s.33.216.33.216h.152l.075-.1.038.045.018.052h-.613v-.186s.314,0,.314,0,.157,0,.157,0,.076.009.075.014h.039s.019,0,.018,0l-.3,0-.3,0v0l.309,0v.37s-.01.372-.01.372h.005s.153-.359.152-.354l.078-.183.038-.088-.284-.045s-.287-.043-.287-.042v0s.3,0,.3,0l.151.058.078.06h-.252s-.28-.106-.28-.1h0s.3,0,.3,0l.15,0s.074,0,.074,0h-.261s-.263,0-.263,0v0l.3,0,.148,0s.072.008.07.012h.037l.017,0-.284,0-.286,0v0l.292,0,.146,0,.072,0,.036,0s.016.008.014.011l-.279,0-.281,0v.008l.285,0,.142,0,.07,0,.035,0,.017,0s-.274,0-.274.005l-.275,0v.005s.28,0,.28,0,.14,0,.139,0l.069,0,.034,0s-.26,0-.26,0h-.263v.014l.274,0,.137,0,.068,0,.034,0-.255,0-.258,0v.01h0s.269,0,.268,0l.134,0s.067,0,.066,0l.033,0,.015,0-.258,0-.259,0v0s.264,0,.264,0l.153.248s.166.253.166.253h-.008s-.026-.244-.026-.242l-.013-.122s-.007-.059-.008-.058l0-.029s0-.073,0-.071v-.067h0v.131s0,.212,0,.212l-.033-.039s-.482-.173-.482-.169h0s.253,0,.253,0h.127s.063,0,.062,0l.031,0s.014,0,.014,0l-.086.211c0,.005-.261.227-.261.227h-.141v-.416h0v-.024s.488.439.488.439h.043s-.376-.283-.376-.277l-.155-.109v.005l.155.11s.366.271.366.271h-.023A.165.165,0,0,0,826.279,646.017Z" transform="translate(-812.759 -642.148)"/><path class="e" d="M807.791,654.725a6.325,6.325,0,0,1,1.715-.618l.167.781a5.509,5.509,0,0,0-1.5.538Z" transform="translate(-800.211 -649.068)"/><path class="e" d="M820.253,651.523h-.234l-.624.3v.063l.355.034.179-.113s.087-.2.085-.2l.089-.087h1.06v.338l-.545.056-.271.027-.14.016-.068-.133s-.04-.218-.042-.218l-.031-.087h-.027l-.32.087s-.325.237-.325.237v.134s.01.011.008.012a.019.019,0,0,0-.008.016v.007h0l.3,0,.739-.043.734-.116v-.338H819.4v.338s.279.091.277.091l-.123-.016a1.236,1.236,0,0,1-.155-.009v0s.26.065.258.066l-.126.032-.132.018v-.064c0,.006.5-.461.489-.461h0s0,.281-.007.282a4.115,4.115,0,0,1-.528.335s.05.037.05.037v-.653h0v.656s-.078.085-.08.086l.037.042s.043.022.043.022v.018l-.084,0-.047,0-.039.006-.011-.418s-.013-.417-.013-.417h0s0,.42,0,.421l0-.211s0-.21,0-.21h-.009s.217.779.217.779v-.034s-.226-.745-.228-.745h-.013s0,.427,0,.427l0,.214,0,.107,0,.054s0,.027,0,.028l0,.014s0-.422,0-.422,0-.422,0-.422H819.1s0,.435,0,.435v-.218s0-.217,0-.217h.012c-.009,0,.292.876.292.878v.06s-.355-.938-.357-.938h.01c-.016,0-.026.449-.041.453l-.205-.552a3.249,3.249,0,0,0,1.164-.447l.928.737c-.058.043.271.213.271.213v0s-.453-.214-.455-.213h0c-.01.007-.47-.2-.48-.2h-.045l.98.387v.009l-.521-.189-.45-.206h.971v.338s-.5.032-.511.036-.249.014-.25.015l-.123.006s-.065.005-.066.006l-.031-.2s-.034-.2-.034-.2h0l1.018.35v-.031S820.26,651.523,820.253,651.523Z" transform="translate(-807.976 -646.861)"/><path class="e" d="M799.514,662.247l-.5-.237a5.372,5.372,0,0,1,1-1.672l.69.908s.057.415.057.415h-.021s-1.191-.807-1.191-.806v-.005s1.182.811,1.182.811h.012l0-.4.582-.2s.578-.2.578-.2h0s-.58,0-.58,0-.291,0-.292,0l-.147,0-.073.4s-.064.4-.064.4h-.01v-.249s-.011-.255-.015-.249l0-.133,0-.064v.695h0l0-.374V661.1l0-.091v.323s0,.33,0,.33h0l0,0v0h0l0,0v0h0l-.57-.36-.571-.3v-.026l.567.34s.566.348.566.348h-.153s-.06,0-.06,0h-.92v-.687h0v0l.333.339s.552.342.552.342h.19l.011-.331-.541-.166s-.544-.183-.544-.182v-.069s.878.748.878.748h-.106s-.772-.731-.772-.73v.04s.542.023.541.024l.325.33s.323.335.323.335h.055l-1.243-.566v.566h1.044l-.448-.242s-.6-.29-.6-.288v-.04A3.4,3.4,0,0,1,799.514,662.247Z" transform="translate(-794.019 -653.463)"/><path class="e" d="M790.976,679.654a3.128,3.128,0,0,0,1.143-.533l.476.642a3.909,3.909,0,0,1-1.439.67Z" transform="translate(-788.353 -666.708)"/><path class="e" d="M782.779,680.548h-.144c-.143,0-.345.455-.557.456.027-.266.044-.307.073-.574.189,0,.371.11.513.108.2,0,.417.064.63.065l0,.374c-.157,0-.314-.43-.467-.43h-.045Z" transform="translate(-782.078 -667.631)"/><path class="e" d="M798.857,672.057a2.935,2.935,0,0,1-.335,1.509l-.483-.4a2.62,2.62,0,0,0,.524-1.127v-.031l.547.04-.252,0Z" transform="translate(-793.333 -661.693)"/></g><g transform="translate(0 42.497)"><path class="c" d="M781.575,781.05c.216,2.384.478,4.77.821,7.16a12.7,12.7,0,0,0,6.231,7.076,21.011,21.011,0,0,0,3.944.957c.251.032.5.061.751.092q1.344.1,2.687.185a2.29,2.29,0,0,1,.326-3.143c-.384-2.326-1.837-3.532-4.23-3.953a3.262,3.262,0,0,1-3.1-3.31C789.005,782.894,786.423,780.623,781.575,781.05Z" transform="translate(-781.575 -780.998)"/><path class="d" d="M782.62,790.586a9.639,9.639,0,0,0,8.248,7.659c1.936.152,3.87.276,5.8.4a15.562,15.562,0,0,0,.019-2.281,4.719,4.719,0,0,0-4.4-4.256c-2.411-.247-3.718-1.412-3.836-3.937a4.6,4.6,0,0,0-4.419-4.193c-.72-.024-1.6-.01-2.2.026C782.054,786.2,782.3,788.389,782.62,790.586Z" transform="translate(-781.763 -783.091)"/><g transform="translate(0.148 1.129)"><path class="e" d="M827.667,831.658l-.8.007,0,.507.8.055Z" transform="translate(-813.664 -817.853)"/><path class="e" d="M826.279,822.024l-.7.188a2.449,2.449,0,0,1,.363,1.086l.425-.117c-.011-.137-.426-.319-.426-.452v-.009h0v-.031h0v-.005h.034s.349,0,.348-.005l.179.027a1.5,1.5,0,0,1,.165.01h0s0-.032,0-.034v-.027l-.362-.005s-.363-.006-.363-.008h0v.075h.7s-.345-.047-.346-.049l-.351-.136v.079s.358,0,.357,0l.078.057s.444.053.069.053h0s.1-.062.1-.065l.051-.031s.025-.018.024-.019l.013.059-.314.055h-.384v-.148s.353,0,.352,0l.176,0s.088,0,.087-.005l.044,0,.021,0-.339,0-.341,0v0s.444,0,.068,0l.315,0,.157,0,.078,0s.039,0,.039,0l.019,0,.009,0-.342,0-.343,0v0s.346,0,.346,0l.172,0-.258,0-.26,0v-.006s.344,0,.343,0,.172,0,.171,0l-.257,0-.257,0v-.015l.34,0-.169,0s-.171,0-.171-.006v0l.338,0,.169,0,.084,0s.041,0,.041,0l.02,0-.326,0-.326,0v-.006h0s.333-.009.332-.013l.167,0s.083,0,.083,0l.041,0,.02,0s.01,0,.009,0,0,0,0,0l-.072.16s-.174.158-.174.158h.117s.063-.172.063-.173l.032.084.015.09h-.3s-.338-.443-.338-.448v.039s.322.017.322.015l.161.009s.08,0,.08,0h.04s.019,0,.019,0h-.31s-.312,0-.312,0h0s.33.391.33.391h.152s.076-.205.075-.207l.038-.1s.018.157.018.155l-.427.154h-.187v-.421s.194.421.193.421h.217s.106-.222.1-.227l.054-.107s.026-.056.026-.057l-.3-.028-.3-.029v0l.309,0v.228s-.01.226-.01.226h.005s.153-.24.152-.244l.078-.116s.038-.06.038-.061l-.284-.03s-.287-.031-.287-.031v0s.3,0,.3,0l.151.246.078.244h-.253s-.28-.5-.28-.5h0s.3,0,.3,0l.15,0s.074,0,.074,0l-.261,0s-.263,0-.263,0v0l.3,0,.148,0s.072-.008.07-.012h.037l.017,0h-.283s-.286,0-.286,0v0l.292,0,.146,0,.072,0,.036,0s.016-.008.014-.012l-.279,0-.281,0v-.008s.286,0,.286,0,.142,0,.142,0l.071,0a.224.224,0,0,1,.035,0s.017,0,.016,0-.274,0-.274,0l-.275,0V822.1l.28,0,.14,0,.069,0,.034,0-.259,0s-.264,0-.264,0v-.013l.274,0,.137,0,.068,0,.034,0-.255,0-.258,0v-.01h0s.269,0,.268-.005l.134,0s.067,0,.066,0h.033s.016,0,.015,0h-.257s-.26,0-.26,0v0s.264,0,.264,0l.153-.093s.167-.1.167-.1h-.008s-.026.088-.026.086l-.013.044s-.007.02-.008.019l0,.011s0,.366,0,.365v.361h-.225v-.171s.334.171.334.171h.008s-.637-.738-.637-.742h0s.253,0,.253,0h.127s.063,0,.062,0l.031-.064s.005-.068,0-.068h-.478v.1h0v.044s.488.738.488.738h.043s-.376-.465-.376-.47l-.155-.34V821.9l.155.339s.366.476.366.476h-.023C826.4,821.829,826.331,822.115,826.279,822.024Z" transform="translate(-812.759 -810.922)"/><path class="e" d="M807.791,812.717a6.317,6.317,0,0,0,1.715.618l.167-.781a5.509,5.509,0,0,1-1.5-.538Z" transform="translate(-800.211 -804.002)"/><path class="e" d="M820.253,813.124h-.234l-.624.8v-.031l.355-.018.179.057s.087-.375.085-.375l.089-.43h1.06v.812l-.545-.05-.271-.024-.14-.015-.068.069s-.04-.363-.042-.363l-.031-.43h-.027l-.32.43s-.325.344-.325.343v-.077s.01-.007.008-.008a.016.016,0,0,1-.008-.015h0v-.672h.49s.052.332.051.331l.616.23.611.251v-.812H819.4v.812s.279-.084.277-.085l-.123-.108c-.011-.006-.155-.122-.155-.122h0l.258.063-.126.032s-.132.014-.132.014v-.047c0-.006.5-.852.489-.852h0s0,.447-.007.446c-.186-.1-.325.118-.528.048,0,0,.05.274.05.274v-.291h0V813.1s-.078.18-.08.18l.037.09.043.044v.032l-.084.005s-.046-.308-.047-.309-.054-.313-.06-.313h0s0,.309-.005.308v.154s0,.077,0,.076l0,.038s0,.019,0,.018l0-.3s0-.3,0-.3h0s.217.683.217.682v-.036a.09.09,0,0,0-.008-.02l.008-.009v-.009l-.122,0h-.062l-.033-.155.1-.155h.118v.306l-.259-.306h0l0-.148,0-.147H819.1s0,.293,0,.293v-.146s0-.147,0-.147h.012c-.009,0,.292.58.292.578v-.041s-.355-.537-.357-.537h.01c-.016,0-.026.279-.041.275l-.205.916a3.591,3.591,0,0,1,1.164.629l.928-.627c-.058-.043.271-.117.271-.117v0l-.455-.384h0c-.01-.007-.47-.4-.48-.4h-.045s.98.8.98.794v-.794h0v.812s-.5-.026-.511-.03-.249-.011-.25-.012l-.123,0-.066,0-.031-.379s-.029-.381-.03-.381h.178l.835.752v.048S820.26,813.124,820.253,813.124Z" transform="translate(-807.976 -804.575)"/><path class="e" d="M799.514,803.786l-.5.236a5.372,5.372,0,0,0,1,1.672l.69.132s.057.626.057.626h-.021s-1.191-1.216-1.191-1.218v-.024s.6-.014.6-.016l.3-.007s.149-.006.149-.007l.654,0s.65,0,.65-.005h0l-.581,0-.291-.242-.146-.244h-.074s-.038.237-.04.236l-.017.33s-.018.267-.018.267v.03s-.011-.208-.015-.214l0-.1,0-.052v-.026s0,.651,0,.65v.647h0l0-.667,0-.335,0-.169,0-.086,0,.631v.625h0l0-.676,0-.339,0-.171,0-.087-.57-.044-.571-.038v-.006l.566-.005.283,0s.141,0,.14,0l-.079.687s.011.685.011.685h-.92v-1.395h0v-.374h1.074s.012.176.011.175l-.541.088s-.544.068-.544.067v-.06s.878-.27.878-.27h-.106s-.772.272-.772.271v.033s.542.014.541.012l.325.728.323.725h.055l-1.243-1.527v1.527h1.044l-.448-.779s-.6-.751-.6-.753v.022A3.414,3.414,0,0,0,799.514,803.786Z" transform="translate(-794.019 -798.198)"/><path class="e" d="M790.976,787.806a3.128,3.128,0,0,1,1.143.533l.476-.642a3.909,3.909,0,0,0-1.439-.67Z" transform="translate(-788.353 -786.38)"/><path class="e" d="M782.779,784.829h-.144c-.143,0-.345.273-.557.272.027.266.044.671.073.938.189,0,.371.072.513.074.2,0,.417.027.63.026l0-1.057c-.157,0-.314-.253-.467-.253h-.045Z" transform="translate(-782.078 -784.829)"/><path class="e" d="M798.857,794.816a2.935,2.935,0,0,0-.335-1.509l-.483.4a2.621,2.621,0,0,1,.524,1.127v.03h0l.547-.04-.252,0Z" transform="translate(-793.333 -790.808)"/></g></g><g transform="translate(66.246 42.497)"><path class="c" d="M1021.742,781.05c-.216,2.384-.478,4.77-.821,7.16a12.694,12.694,0,0,1-6.231,7.076,21.011,21.011,0,0,1-3.944.957c-.251.032-.5.061-.752.092q-1.344.1-2.687.185a2.291,2.291,0,0,0-.326-3.143c.383-2.326,1.836-3.532,4.229-3.953a3.263,3.263,0,0,0,3.1-3.31C1014.311,782.894,1016.894,780.623,1021.742,781.05Z" transform="translate(-1006.779 -780.998)"/><path class="d" d="M1020.4,790.586a9.638,9.638,0,0,1-8.247,7.659c-1.937.152-3.87.276-5.8.4a15.52,15.52,0,0,1-.019-2.281,4.719,4.719,0,0,1,4.4-4.256c2.411-.247,3.718-1.412,3.837-3.937a4.6,4.6,0,0,1,4.419-4.193c.72-.024,1.6-.01,2.2.026C1020.968,786.2,1020.721,788.389,1020.4,790.586Z" transform="translate(-1006.296 -783.091)"/><g transform="translate(0.079 1.129)"><path class="e" d="M1009.038,831.658l.8.007,0,.507-.8.055Z" transform="translate(-1008.305 -817.853)"/><path class="e" d="M1007.78,822.172l.7.114a2.3,2.3,0,0,0-.363,1.049l-1.015-.135c.011-.137-.163-.338-.163-.47v0s.219,0,.22-.007l.209.169s-.189.164-.189.164l-.239-.68v.315h0v.32h-.272s.36-.167.36-.169l.273.093c0-.006.242.075.242.075h.018s-.084-.179-.084-.181l-.042-.089-.02.136-.2.134h-.277v0h.5s-.018,0-.018,0l-.009,0h0l0,0s-.433,0-.433,0h-.03v-.4l.221.2s.2.2.2.2h.041s0-.213.005-.214l0-.107,0-.056-.234-.029s-.233-.031-.233-.032h0s.236,0,.236,0l-.119,0s-.118,0-.118,0v0s.238,0,.238-.005l-.12,0-.118,0v-.02s0,0,0,0v-.032s.246,0,.246,0,.123,0,.124,0l-.186,0-.184,0v0s.248,0,.248,0h.124s.063,0,.063,0l.032,0,.016,0-.242,0s-.241,0-.241-.006v0l.251,0,.126,0,.064,0,.032,0,.016,0s-.244,0-.244,0-.244,0-.244,0v-.006h0s.257-.009.258-.013l.128,0s.064,0,.065,0l.032,0-.242,0s-.24,0-.24,0v0l.222.308s.32.305.32.305h-.025s0-.32,0-.321l0-.161-.262-.083-.261-.081v0l-.2.33-.134.319h-.032s.451-.335.451-.336l.226-.167s.113-.086.113-.087l.057-.043s.029-.023.029-.024l-.255-.012s-.254-.013-.254-.014h0s.367.686.367.686h.089s.044-.353.045-.354l.022-.177s.011-.09.012-.091l-.268-.045-.267-.047h0s.275,0,.275,0h.137s.072-.009.073-.013h.035s.018,0,.018,0l-.27,0-.269,0v0l.28,0,.179.376s.144.374.144.374h.018s-.027-.387-.025-.391l-.014-.19s-.007-.1-.006-.1l-.289-.049-.286-.051h0v-.006s.381.786.381.786h-.1s-.285-.8-.285-.8h0s.289,0,.29,0l.145,0s.073,0,.073,0h-.255s-.253,0-.253,0v0l.292,0,.146,0s.076-.008.077-.012h-.259l-.257,0v0l.3,0,.149,0,.075,0-.261,0-.259,0v0s.3-.008.3-.012l.15,0,.076,0s-.265,0-.265,0-.263,0-.263,0v0s.3,0,.3,0,.153,0,.153,0-.229,0-.229,0-.227,0-.227,0v-.011l.308,0,.154,0,.078,0,.039,0,.02,0,.011,0,.006,0s0,0,0,0l0,0,0,0,0,0v-.022l-.318,0s-.317,0-.317,0h0v-.007s.321,0,.322,0h.161s.081,0,.081,0a.326.326,0,0,1,.041,0,.207.207,0,0,1,.022,0h.011s.006,0,.007,0l-.012-.093s-.012-.1-.012-.1h0s.017.088.017.086l.008.044s.005.02.006.019l0,.37s0,.366,0,.366h-.657v-.585s.663.88.663.88h.076s-.739-1.033-.739-1.037h0s.336,0,.337,0h.168s.085,0,.085,0h.042s.022,0,.023,0l-.011.387-.15.371h-.493v-.781h0v.044s.69,1.033.69,1.033h-.037s-.334-.612-.334-.617l-.319-.488V821.9l.319.486s.344.623.344.623h.021A5.046,5.046,0,0,1,1007.78,822.172Z" transform="translate(-1006.565 -810.922)"/><path class="e" d="M1026.335,812.717a6.312,6.312,0,0,1-1.715.618l-.167-.781a5.507,5.507,0,0,0,1.5-.538Z" transform="translate(-1019.18 -804.002)"/><path class="e" d="M1011.8,813.124h1.139l-1.139.8v-.031l.529-.018.263.057s.134-.375.134-.375l.133-.43H1011.8v.812l.545-.05.27-.024.14-.015.068.069s.034-.363.036-.363l.037-.43h.026l-.563.43-.559.343v-.077s-.01-.007-.008-.008a.016.016,0,0,0,.008-.015h0v-.672h1.035s.069.332.07.331l-.555.23-.55.251v.047h0v-.047l.607-.085-.319-.108c.011-.006-.287-.122-.287-.122h0s.624.064.626.063l-.315.032-.311.014v-.047c0-.006,1.3-.852,1.311-.852h-.012s0,.447,0,.446c.185-.1.616.118.819.048,0,0,.241.274.241.274v-.291h0V813.1l-.215.18-.109.09.159.044.165.022v.015s-.207-.308-.205-.309-.2-.313-.193-.313h0s0,.309,0,.308l0,.154s0,.077,0,.076v.038s0,.019,0,.018l0-.3s0-.3,0-.3h0s.374.683.374.682v-.036l-.178-.02.085-.009.092-.006v0l-.173,0h.173v-.307h-.331l0-.147s0-.147,0-.147h.028s0,.293,0,.293v-.146s0-.147,0-.147h-.007c.009,0,.293.58.293.578v-.041s-.164-.537-.162-.537h-.045c.016,0,.008.279.024.275l.2.916a3.608,3.608,0,0,0-1.168.629l-.93-.627c.058-.043-.272-.117-.272-.117v0l.454-.384h0c.01-.007.47-.4.48-.4h-.072s-.862.8-.862.794v-.794h0v.812s.5-.026.511-.03.249-.011.25-.012l-.383,0-.378,0v-.1l1.018-.665h.024l-1.041.752v-.752Z" transform="translate(-1010.248 -804.575)"/><path class="e" d="M1032.727,803.786l.946.236a4.924,4.924,0,0,1-.776,1.672l-.58-.31s.044.183.044.183h0s0-.191,0-.192l-.278-.094s-.276-.068-.276-.069v-.043h0v.024s.577.375.577.375h.006s-.583-.5-.583-.5v.044c0-.006.3.01.3,0l.146-.211.146-.22h0l0,.221,0,.11v.054a.167.167,0,0,1,0,.026s0-.2,0-.2v-.208h0l0,.212,0,.1,0,.051,0,.024,0-.194v-.2h0l0,.2v.1l0,.048v.024s0,.01,0,.009l.011.252s-.044.249-.044.249h-.605v-.51h0v0h0v0h0s.333,0,.334,0h-.17s-.164,0-.164,0h0v0h0s.339,0,.34,0l.06-.17s.078-.173.078-.173h-.008s.108.165.109.164l0,.362s.007.358.007.358h.043l-.634-.643v.643h.724l-.295-.337s-.43-.309-.43-.311v.022C1031.815,804.6,1032.594,804.216,1032.727,803.786Z" transform="translate(-1024.371 -798.198)"/><path class="e" d="M1043.779,787.806a3.125,3.125,0,0,0-1.143.533l-.476-.642a3.911,3.911,0,0,1,1.438-.67Z" transform="translate(-1031.667 -786.38)"/><path class="e" d="M1052.939,784.829h.144c.142,0,.344.273.556.272-.027.266-.044.671-.073.938-.189,0-.37.072-.513.074-.2,0-.417.027-.63.026l0-1.057c.157,0,.314-.253.467-.253h.045Z" transform="translate(-1038.904 -784.829)"/><path class="e" d="M1034.815,794.816c0-.552.517-1.056.777-1.509l.857.4c-.209.363.063.742.045,1.127l.385.03h0l-1.431-.04-.633,0Z" transform="translate(-1026.487 -790.808)"/></g></g></g></g><g transform="translate(25.804 24.237)"><path class="a" d="M902.851,700.681a15.027,15.027,0,0,0-12.034,0c-1.751.584-3.772,1.527-3.682,3.592s1.663,3.885,2.245,4.76a4.68,4.68,0,0,0,4.236,2.282h6.436a4.68,4.68,0,0,0,4.236-2.282c.583-.874,2.155-2.694,2.245-4.76S904.6,701.265,902.851,700.681Z" transform="translate(-881.25 -695.029)"/><path d="M872.085,686.922a2.452,2.452,0,1,0-4.093,1.862,5.461,5.461,0,0,0-.652.5c.627-.249.947-.371.947-.371l-.061.351a3.051,3.051,0,0,1,1.053-.551,3.029,3.029,0,0,0-.274,1.951,10.674,10.674,0,0,1,3.665-3.9C872.512,686.8,872.311,686.853,872.085,686.922Z" transform="translate(-867.18 -684.515)"/><path d="M958.961,688.784a2.451,2.451,0,1,0-4.093-1.862c-.226-.069-.427-.124-.585-.159a13.244,13.244,0,0,1,4.272,3.3,2.685,2.685,0,0,0-.711-1.3,1.987,1.987,0,0,1,.883.51l-.061-.351s.32.122.947.371A5.431,5.431,0,0,0,958.961,688.784Z" transform="translate(-928.606 -684.515)"/><path class="f" d="M919.619,750.935" transform="translate(-904.16 -731.355)"/><g transform="translate(7.974 19.934)"><path class="g" d="M920.007,788.674l-.015.047C920,788.692,920.007,788.674,920.007,788.674Z" transform="translate(-912.398 -777.903)"/><path class="f" d="M901.839,752.213m0-.077s-1.191,3.162-7.609,1.717c.19,1.355.553,3.854.885,5.559.476,2.445.747,4.076,1.7,4.347.879.251,2.028,0,4.274,0,.5,0,.753-.857.753-.857s.092.857.82.857c2.194.034,3.328.247,4.207,0,.951-.272,1.223-1.9,1.7-4.347.332-1.706.7-4.2.885-5.559C902.363,755.3,901.839,752.136,901.839,752.136Z" transform="translate(-894.23 -752.136)"/><path class="g" d="M922.577,782.578c-1.1-.274-2.377-1.325-2.534-3.851v2.932s.092.857.82.857c.347.005.665.015.962.027C921.824,782.544,922.372,782.578,922.577,782.578Z" transform="translate(-912.434 -770.888)"/><path class="g" d="M917.019,752.144a3.043,3.043,0,0,1-1.259,1.312c1.127.88,1.263,3.736,1.263,3.736v-5.056Z" transform="translate(-909.413 -752.136)"/></g></g></g></g></svg>