<svg xmlns="http://www.w3.org/2000/svg" width="32.22" height="32.221" viewBox="0 0 32.22 32.221"><defs><style>.a{fill:#113861;}</style></defs><path class="a" d="M674.9,62.809a14.673,14.673,0,0,1-14.58-14.625,14.28,14.28,0,0,1,.923-5.107l8.527,17.167c.113.227.248.405.518.405a.566.566,0,0,0,.518-.405l3.915-8.8c.045-.09.089-.18.18-.18s.135.09.18.18l3.915,8.8a.567.567,0,0,0,.517.405c.27,0,.405-.18.518-.405l8.528-17.167a14.294,14.294,0,0,1,.922,5.107A14.673,14.673,0,0,1,674.9,62.809m0-17.932c-.09,0-.135-.09-.18-.18l-4.59-10.305a14.077,14.077,0,0,1,9.54,0L675.084,44.7c-.045.09-.09.18-.18.18m-4.657,10.575c-.09,0-.135-.09-.18-.18l-7.424-14.962a15.079,15.079,0,0,1,5.242-4.928l5.332,11.88a.376.376,0,0,0,.405.27h2.565a.376.376,0,0,0,.4-.27l5.332-11.88a15.083,15.083,0,0,1,5.243,4.928l-7.425,14.962c-.045.09-.09.18-.18.18s-.135-.09-.18-.18l-2.79-6.39a.377.377,0,0,0-.4-.271h-2.565a.377.377,0,0,0-.405.271l-2.79,6.39c-.045.09-.089.18-.18.18m4.657,8.843a16.11,16.11,0,1,0-16.11-16.11,16.094,16.094,0,0,0,16.11,16.11" transform="translate(-658.794 -32.073)"/></svg>